<?xml version="1.0" encoding="UTF-8"?>
<svg id="Layer_2" data-name="Layer 2" xmlns="http://www.w3.org/2000/svg" viewBox="0 0 523 173.62">
  <defs>
    <style>
      .cls-1 {
        fill: #eaa87a;
      }
    </style>
  </defs>
  <g id="Layer_1-2" data-name="Layer 1">
    <g>
      <path class="cls-1" d="M179.99,.02V81.18c-45.21-3.76-80.17-36.92-80.17-77.3V.18l-3.8-.16h-12.94V97.67h16.64V54.4c18.28,25.6,49.26,41.85,83.82,43.23,.15,.02,4.77,.11,4.77,.11l4.62-.09h3.7V.02h-16.64Z"/>
      <path class="cls-1" d="M305.93,.1V3.8c0,23.05-19.16,41.81-42.72,41.81S220.5,26.86,220.5,3.8V.1h-16.65V3.8c0,28.66,22.19,52.91,51.04,56.91v37.1h16.64V60.72c28.84-4.01,51.03-28.26,51.03-56.91V.1h-16.64Z"/>
      <path class="cls-1" d="M375.46,57.93c2.72-.55,5.52-.83,8.36-.83,21.75,0,39.45,16.6,39.45,36.99v3.7h16.65v-3.7c0-18.91-11.04-35.75-28.07-45.19,17.03-9.44,28.07-26.27,28.07-45.2V0h-16.65V3.69c0,20.4-17.7,37-39.45,37s-39.43-16.6-39.43-37V0h-16.66V3.69c0,18.78,10.88,35.49,27.67,44.97-3.88,2.16-7.57,4.59-10.82,7.6-10.87,10.04-16.86,23.47-16.86,37.82v3.71h16.66v-3.7c0-9.98,4.16-19.34,11.75-26.35,5.4-4.99,12.07-8.35,19.31-9.81"/>
      <path class="cls-1" d="M273.16,126.29c.61-.91,.98-1.99,.98-3.18,0-3.15-2.57-5.72-5.73-5.72-2.74,0-5.03,1.94-5.59,4.51-.57-2.57-2.85-4.51-5.59-4.51-3.16,0-5.73,2.57-5.73,5.72,0,1.09,.33,2.1,.86,2.98h-.04s.17,.23,.17,.23l10.14,12.81,10.57-12.84h-.03Z"/>
      <path class="cls-1" d="M3.29,166.31c.42,0,.86-.05,1.31-.15,.45-.1,.86-.27,1.23-.52,.38-.25,.68-.6,.92-1.04,.24-.44,.35-1.01,.35-1.7,0-.59-.08-1.06-.25-1.43-.16-.37-.39-.65-.68-.86-.29-.2-.65-.34-1.07-.42-.42-.07-.9-.11-1.43-.11H1.84v6.07c.46,.11,.95,.16,1.45,.16M.11,161.97c-.03-.86-.07-1.75-.11-2.65,.33,.03,.66,.05,.99,.07,.33,.02,.67,.03,.99,.03,.16,0,.36,0,.59-.02,.23-.01,.46-.02,.7-.03,.24,0,.47-.02,.69-.03,.22-.01,.4-.02,.55-.02,.2,0,.46,0,.76,.02,.3,.01,.61,.05,.95,.12,.33,.07,.66,.17,.99,.31,.33,.14,.63,.33,.89,.59,.27,.26,.48,.58,.64,.97,.16,.39,.25,.87,.25,1.44,0,.9-.19,1.62-.58,2.18-.39,.56-.86,1-1.43,1.31-.56,.31-1.16,.53-1.8,.64-.63,.11-1.2,.16-1.69,.16-.31,0-.6,0-.86-.01-.26,0-.53-.02-.8-.05v1.13c0,.9,.01,1.78,.05,2.65,.03,.87,.07,1.73,.11,2.58-.31-.03-.65-.04-1-.04s-.69,.01-1,.04c.04-.85,.08-1.7,.11-2.58,.03-.87,.05-1.76,.05-2.65v-3.52c0-.9-.02-1.78-.05-2.65"/>
      <path class="cls-1" d="M30.16,165.86c.23,.01,.47,.02,.75,.02,.42,0,.86-.05,1.32-.14s.87-.26,1.25-.5c.38-.24,.7-.56,.95-.96,.25-.4,.38-.91,.38-1.52,0-.53-.1-.97-.3-1.32-.2-.35-.45-.62-.76-.83s-.65-.34-1.02-.42c-.37-.07-.73-.11-1.08-.11-.48,0-.87,.01-1.19,.03-.31,.02-.58,.04-.8,.07-.03,.75-.05,1.49-.08,2.23-.03,.74-.04,1.47-.04,2.21v1.16c.19,.04,.4,.07,.62,.08m-2.35-3.89c-.03-.86-.07-1.75-.11-2.65,.4,.03,.78,.05,1.17,.07,.38,.02,.77,.03,1.16,.03s.78-.02,1.16-.05,.77-.05,1.16-.05c.57,0,1.12,.05,1.64,.16,.52,.11,.97,.29,1.36,.54,.39,.25,.7,.58,.92,.99,.22,.41,.34,.92,.34,1.53,0,.65-.15,1.21-.44,1.69-.29,.47-.65,.86-1.07,1.16-.42,.31-.88,.55-1.36,.72-.48,.17-.92,.28-1.32,.34,.16,.2,.39,.49,.67,.86,.29,.37,.61,.77,.96,1.21,.35,.44,.72,.91,1.1,1.39,.38,.48,.75,.95,1.1,1.39,.35,.44,.69,.85,1,1.21,.31,.37,.56,.65,.75,.84-.2-.03-.41-.04-.61-.04h-1.21c-.2,0-.4,.01-.59,.04-.2-.29-.51-.71-.93-1.29-.41-.57-.87-1.19-1.38-1.84-.5-.65-1.02-1.31-1.54-1.95-.53-.64-1.01-1.19-1.44-1.64h-.78v1.49c0,.9,.01,1.78,.05,2.65,.03,.87,.07,1.73,.11,2.58-.31-.03-.65-.04-1-.04s-.69,.01-1,.04c.04-.85,.08-1.7,.11-2.58,.03-.87,.05-1.76,.05-2.65v-3.52c0-.9-.02-1.78-.05-2.65"/>
      <path class="cls-1" d="M68.42,163.44c-.29-.83-.68-1.51-1.19-2.05-.51-.54-1.11-.94-1.8-1.19-.69-.26-1.43-.39-2.24-.39s-1.53,.13-2.22,.39c-.69,.26-1.29,.65-1.8,1.19-.51,.54-.91,1.22-1.2,2.05-.29,.82-.43,1.8-.43,2.93s.14,2.11,.43,2.93c.29,.82,.68,1.51,1.2,2.05,.51,.54,1.11,.94,1.8,1.19,.69,.26,1.43,.39,2.22,.39s1.55-.13,2.24-.39c.69-.26,1.29-.65,1.8-1.19,.51-.54,.91-1.22,1.19-2.05,.29-.82,.43-1.8,.43-2.93s-.15-2.11-.43-2.93m-12.31-.16c.37-.91,.9-1.67,1.57-2.3,.67-.63,1.48-1.1,2.42-1.43,.94-.33,1.97-.49,3.08-.49s2.17,.16,3.11,.49c.94,.33,1.75,.8,2.42,1.43,.68,.63,1.2,1.39,1.57,2.3,.38,.91,.56,1.94,.56,3.1s-.19,2.19-.56,3.1c-.37,.9-.9,1.67-1.57,2.3-.67,.63-1.48,1.09-2.42,1.4-.94,.3-1.98,.46-3.11,.46s-2.14-.15-3.08-.46c-.94-.31-1.75-.78-2.42-1.4-.67-.63-1.2-1.39-1.57-2.3-.37-.91-.56-1.94-.56-3.1s.19-2.19,.56-3.1"/>
      <path class="cls-1" d="M90,161.97c-.03-.86-.07-1.75-.11-2.65,.61,.03,1.22,.05,1.83,.07,.61,.02,1.21,.03,1.83,.03s1.23-.01,1.86-.03c.63-.02,1.31-.04,2.04-.07-.04,.2-.06,.41-.06,.61s.02,.41,.06,.61c-.37-.04-.81-.08-1.33-.11-.52-.03-1.04-.06-1.58-.08-.54-.02-1.06-.04-1.55-.05-.5-.01-.91-.02-1.24-.02-.01,.48-.02,.93-.03,1.37,0,.44-.01,.87-.01,1.31,0,.48,0,.91,.01,1.32,0,.4,.01,.82,.01,1.25,.9,0,1.79-.01,2.67-.04,.88-.03,1.75-.08,2.6-.16-.05,.2-.08,.41-.08,.61s.03,.41,.08,.61c-.34-.04-.72-.07-1.15-.1-.43-.02-.87-.04-1.34-.05-.46-.01-.93-.02-1.41-.02h-1.37v1.74c0,.9,.02,1.78,.05,2.65,.03,.87,.07,1.73,.11,2.58-.31-.03-.65-.04-1-.04s-.69,.01-1,.04c.04-.85,.08-1.7,.11-2.58,.03-.87,.05-1.76,.05-2.65v-3.52c0-.9-.02-1.78-.05-2.65"/>
      <path class="cls-1" d="M116.56,161.94c-.03-.87-.07-1.74-.11-2.62,.61,.03,1.22,.05,1.83,.07,.61,.02,1.21,.03,1.83,.03s1.22-.01,1.82-.03c.6-.02,1.2-.04,1.82-.07-.04,.2-.06,.41-.06,.61s.02,.41,.06,.61c-.44-.03-.83-.05-1.2-.08-.36-.03-.74-.05-1.15-.08-.4-.03-.84-.05-1.32-.07-.48-.02-1.05-.03-1.72-.03-.01,.44-.03,.85-.05,1.24-.02,.4-.03,.85-.03,1.35,0,.53,0,1.05,.01,1.55,0,.5,0,.89,0,1.15,.6,0,1.14,0,1.61-.02,.48-.01,.91-.03,1.31-.05,.4-.02,.76-.04,1.09-.06,.33-.02,.65-.04,.95-.07-.04,.2-.06,.42-.06,.63s.02,.41,.06,.61c-.35-.04-.76-.08-1.24-.1-.47-.03-.94-.04-1.41-.05-.47,0-.91-.01-1.33-.02-.41,0-.75-.01-.99-.01,0,.12,0,.26,0,.4,0,.14-.01,.33-.01,.54v2.02c0,.78,0,1.42,.01,1.92,0,.5,.01,.89,.03,1.15h1.43c.52,0,1.02-.01,1.52-.03,.5-.02,.97-.05,1.41-.08,.44-.03,.83-.08,1.16-.15-.03,.1-.05,.2-.05,.32,0,.11-.01,.22-.01,.31,0,.22,.02,.4,.06,.53-.61-.03-1.23-.04-1.83-.04h-3.71c-.61,0-1.23,.01-1.86,.04,.04-.87,.08-1.74,.11-2.6,.03-.86,.05-1.75,.05-2.65v-3.51c0-.9-.02-1.79-.05-2.66"/>
      <path class="cls-1" d="M143.16,171.45c.18,.25,.41,.48,.67,.68,.27,.2,.57,.37,.93,.5,.35,.13,.75,.19,1.19,.19s.86-.08,1.21-.23c.36-.16,.67-.37,.92-.63,.25-.27,.45-.58,.58-.94,.14-.36,.2-.75,.2-1.16,0-.63-.16-1.12-.48-1.49-.32-.37-.72-.68-1.19-.92-.48-.25-.99-.47-1.54-.67-.55-.2-1.06-.46-1.54-.76-.48-.31-.88-.7-1.2-1.17-.32-.48-.48-1.12-.48-1.92,0-.57,.1-1.09,.3-1.56,.2-.47,.5-.88,.89-1.22,.39-.34,.86-.6,1.4-.79,.55-.19,1.16-.29,1.84-.29s1.22,.08,1.7,.24c.48,.15,.92,.4,1.33,.72-.12,.23-.23,.48-.31,.74-.08,.26-.16,.59-.25,.98h-.25c-.07-.19-.16-.4-.27-.62-.12-.23-.27-.44-.47-.63-.2-.19-.43-.35-.7-.48-.27-.13-.6-.19-.98-.19s-.74,.06-1.05,.18c-.32,.12-.6,.3-.84,.52-.24,.22-.42,.49-.55,.8-.13,.31-.19,.65-.19,1.02,0,.64,.16,1.15,.48,1.51,.32,.37,.72,.68,1.2,.93s.99,.48,1.54,.67c.55,.2,1.06,.44,1.54,.72,.48,.29,.87,.65,1.2,1.1,.32,.45,.48,1.05,.48,1.8,0,.63-.11,1.22-.34,1.78-.22,.56-.55,1.05-.98,1.46-.43,.42-.95,.74-1.57,.96-.62,.22-1.32,.34-2.11,.34-.85,0-1.53-.11-2.05-.34-.52-.23-.96-.48-1.32-.77,.12-.31,.2-.6,.26-.85,.05-.25,.09-.57,.13-.97h.25c.11,.25,.26,.49,.44,.75"/>
      <path class="cls-1" d="M169.71,171.45c.18,.25,.41,.48,.67,.68,.27,.2,.57,.37,.93,.5,.35,.13,.75,.19,1.19,.19s.86-.08,1.21-.23c.36-.16,.67-.37,.92-.63,.25-.27,.45-.58,.58-.94,.14-.36,.2-.75,.2-1.16,0-.63-.16-1.12-.48-1.49-.32-.37-.72-.68-1.19-.92-.48-.25-.99-.47-1.54-.67-.55-.2-1.06-.46-1.54-.76-.48-.31-.88-.7-1.2-1.17-.32-.48-.48-1.12-.48-1.92,0-.57,.1-1.09,.31-1.56,.2-.47,.5-.88,.89-1.22,.39-.34,.86-.6,1.4-.79,.55-.19,1.16-.29,1.84-.29s1.22,.08,1.7,.24c.48,.15,.92,.4,1.33,.72-.12,.23-.23,.48-.31,.74-.08,.26-.16,.59-.25,.98h-.25c-.07-.19-.16-.4-.27-.62-.12-.23-.27-.44-.47-.63-.2-.19-.43-.35-.7-.48-.27-.13-.6-.19-.98-.19s-.74,.06-1.05,.18c-.32,.12-.6,.3-.84,.52-.24,.22-.42,.49-.55,.8-.13,.31-.19,.65-.19,1.02,0,.64,.16,1.15,.48,1.51,.32,.37,.72,.68,1.19,.93s.99,.48,1.54,.67c.55,.2,1.06,.44,1.54,.72,.48,.29,.87,.65,1.2,1.1,.32,.45,.48,1.05,.48,1.8,0,.63-.11,1.22-.34,1.78-.22,.56-.55,1.05-.98,1.46-.43,.42-.95,.74-1.57,.96-.62,.22-1.32,.34-2.11,.34-.85,0-1.53-.11-2.05-.34-.52-.23-.96-.48-1.32-.77,.12-.31,.21-.6,.26-.85,.05-.25,.09-.57,.13-.97h.25c.11,.25,.26,.49,.44,.75"/>
      <path class="cls-1" d="M196.23,161.97c-.03-.86-.07-1.75-.11-2.65,.18,.03,.35,.05,.51,.07,.16,.02,.33,.03,.49,.03s.33-.01,.49-.03c.16-.02,.33-.04,.51-.07-.04,.9-.08,1.78-.11,2.65-.04,.86-.05,1.75-.05,2.65v3.52c0,.9,.01,1.78,.05,2.65,.03,.87,.07,1.73,.11,2.58-.31-.03-.65-.04-1-.04s-.69,.01-1,.04c.04-.85,.08-1.7,.11-2.58,.03-.87,.05-1.76,.05-2.65v-3.52c0-.9-.02-1.78-.05-2.65"/>
      <path class="cls-1" d="M230.03,163.44c-.29-.83-.68-1.51-1.19-2.05-.51-.54-1.11-.94-1.8-1.19-.69-.26-1.43-.39-2.24-.39s-1.53,.13-2.22,.39c-.69,.26-1.29,.65-1.8,1.19-.51,.54-.91,1.22-1.2,2.05-.29,.82-.43,1.8-.43,2.93s.14,2.11,.43,2.93c.29,.82,.68,1.51,1.2,2.05,.51,.54,1.11,.94,1.8,1.19,.69,.26,1.43,.39,2.22,.39s1.55-.13,2.24-.39c.69-.26,1.29-.65,1.8-1.19,.51-.54,.91-1.22,1.19-2.05,.29-.82,.43-1.8,.43-2.93s-.14-2.11-.43-2.93m-12.31-.16c.37-.91,.9-1.67,1.57-2.3,.67-.63,1.48-1.1,2.42-1.43,.94-.33,1.96-.49,3.08-.49s2.17,.16,3.11,.49c.94,.33,1.75,.8,2.42,1.43,.67,.63,1.2,1.39,1.57,2.3,.37,.91,.56,1.94,.56,3.1s-.19,2.19-.56,3.1c-.37,.9-.9,1.67-1.57,2.3-.67,.63-1.48,1.09-2.42,1.4-.94,.3-1.98,.46-3.11,.46s-2.15-.15-3.08-.46c-.94-.31-1.75-.78-2.42-1.4-.67-.63-1.2-1.39-1.57-2.3-.37-.91-.56-1.94-.56-3.1s.19-2.19,.56-3.1"/>
      <path class="cls-1" d="M258.16,168.05c-1.77-1.9-3.54-3.79-5.31-5.67-.01,.38-.03,.89-.04,1.53-.01,.64-.02,1.51-.02,2.62,0,.29,0,.64,.01,1.06,0,.42,.01,.87,.02,1.33,0,.46,.01,.93,.03,1.41,.01,.48,.03,.92,.04,1.33,.01,.41,.03,.76,.04,1.07,.01,.3,.03,.51,.04,.62-.22-.03-.46-.04-.72-.04s-.52,.01-.75,.04c.03-.14,.05-.39,.09-.76,.03-.37,.06-.8,.09-1.32,.03-.51,.06-1.06,.09-1.66s.06-1.2,.08-1.8c.02-.6,.04-1.19,.05-1.76,.01-.57,.02-1.08,.02-1.53,0-1.31,0-2.43-.01-3.37,0-.94-.02-1.64-.05-2.1h.33c.83,.9,1.72,1.86,2.67,2.89,.95,1.03,1.89,2.05,2.82,3.04,.93,1,1.82,1.95,2.66,2.84,.84,.89,1.57,1.65,2.2,2.28v-2.78c0-1.43-.01-2.82-.03-4.18-.02-1.35-.07-2.63-.14-3.83,.27,.07,.5,.1,.7,.1,.16,0,.38-.03,.65-.1-.03,.3-.06,.75-.09,1.35-.04,.6-.07,1.24-.1,1.92-.04,.68-.07,1.35-.09,2-.03,.65-.04,1.18-.04,1.57v1.23c0,.46,0,.94,.01,1.45,0,.5,.01,1.01,.02,1.52,0,.51,.01,.99,.02,1.43,0,.44,.01,.83,.01,1.15v.68h-.29c-1.57-1.81-3.23-3.67-5-5.57"/>
      <path class="cls-1" d="M285.76,167c.35,0,.72,0,1.1,.02,.38,.01,.75,.02,1.1,.02,.38,0,.76,0,1.15-.01,.38,0,.76-.02,1.15-.03l-2.27-5.19-2.23,5.19Zm9.05,6.35c-.19-.03-.37-.04-.54-.04h-1.08c-.17,0-.35,.01-.54,.04-.1-.31-.22-.69-.39-1.13-.16-.44-.34-.9-.54-1.39-.2-.48-.4-.97-.6-1.47-.2-.49-.4-.97-.57-1.42-.44-.01-.88-.02-1.33-.03-.45,0-.9-.01-1.35-.01s-.84,0-1.25,.01c-.41,0-.82,.02-1.25,.03-.44,1.06-.83,2.07-1.19,3.03-.35,.96-.62,1.76-.79,2.38-.23-.03-.49-.04-.76-.04s-.52,.01-.76,.04c1.1-2.38,2.18-4.75,3.23-7.11,1.05-2.36,2.1-4.75,3.16-7.19h.39c.33,.79,.68,1.65,1.06,2.56,.38,.92,.77,1.85,1.16,2.79s.79,1.87,1.19,2.8c.4,.93,.76,1.79,1.11,2.59,.35,.79,.66,1.51,.94,2.13,.28,.63,.51,1.1,.68,1.43"/>
      <path class="cls-1" d="M313.45,161.97c-.03-.86-.07-1.75-.11-2.65,.18,.03,.35,.05,.51,.07,.16,.02,.33,.03,.49,.03s.33-.01,.49-.03c.16-.02,.33-.04,.51-.07-.04,.9-.08,1.78-.11,2.65-.04,.86-.05,1.75-.05,2.65,0,1.72,0,3.2,.02,4.46,.01,1.26,.03,2.39,.04,3.38,.97,0,1.89,0,2.78-.03,.89-.02,1.84-.1,2.86-.23-.07,.25-.1,.45-.1,.61,0,.15,.03,.33,.1,.55-.63-.03-1.25-.04-1.88-.04h-3.77c-.61,0-1.24,.01-1.89,.04,.04-.85,.08-1.7,.11-2.58,.03-.87,.05-1.76,.05-2.65v-3.52c0-.9-.02-1.78-.05-2.65"/>
      <path class="cls-1" d="M366.24,164.69c.96,1.83,1.96,3.7,3.01,5.62,.14-.26,.33-.63,.59-1.12,.26-.48,.56-1.04,.9-1.66,.34-.63,.71-1.3,1.09-2.03,.39-.73,.78-1.47,1.19-2.22,.4-.75,.8-1.49,1.19-2.21,.4-.72,.76-1.4,1.1-2.02h.27c.15,1.31,.29,2.57,.42,3.79,.13,1.22,.26,2.41,.4,3.59s.27,2.35,.41,3.49c.14,1.15,.29,2.29,.45,3.42-.16-.03-.32-.04-.48-.04h-.96c-.16,0-.32,.01-.48,.04-.15-1.81-.3-3.57-.45-5.27-.15-1.7-.34-3.44-.55-5.21h-.04c-.94,1.72-1.86,3.42-2.77,5.12-.9,1.69-1.77,3.47-2.58,5.32h-.18c-.82-1.72-1.67-3.44-2.56-5.16-.89-1.72-1.79-3.48-2.69-5.28h-.04c-.1,.85-.2,1.76-.31,2.75-.12,.99-.22,1.96-.32,2.92-.1,.96-.18,1.87-.25,2.71-.07,.85-.1,1.55-.1,2.1-.22-.03-.45-.04-.71-.04s-.5,.01-.71,.04c.18-1.1,.36-2.27,.55-3.49,.19-1.23,.38-2.46,.55-3.7,.18-1.24,.34-2.46,.49-3.67,.15-1.21,.28-2.35,.39-3.44h.35c.94,1.93,1.89,3.81,2.85,5.64"/>
      <path class="cls-1" d="M398.81,167c.35,0,.72,0,1.1,.02,.38,.01,.75,.02,1.1,.02,.38,0,.76,0,1.15-.01,.38,0,.76-.02,1.15-.03l-2.27-5.19-2.23,5.19Zm9.05,6.35c-.19-.03-.37-.04-.54-.04h-1.08c-.17,0-.35,.01-.54,.04-.1-.31-.22-.69-.39-1.13-.16-.44-.34-.9-.54-1.39-.2-.48-.4-.97-.6-1.47-.2-.49-.4-.97-.57-1.42-.44-.01-.88-.02-1.33-.03-.45,0-.9-.01-1.35-.01-.42,0-.83,0-1.24,.01-.41,0-.82,.02-1.25,.03-.44,1.06-.83,2.07-1.19,3.03-.35,.96-.62,1.76-.79,2.38-.23-.03-.49-.04-.76-.04s-.52,.01-.76,.04c1.1-2.38,2.18-4.75,3.23-7.11,1.05-2.36,2.1-4.75,3.16-7.19h.39c.33,.79,.68,1.65,1.06,2.56,.38,.92,.77,1.85,1.16,2.79s.79,1.87,1.19,2.8c.4,.93,.76,1.79,1.11,2.59,.35,.79,.66,1.51,.94,2.13,.28,.63,.51,1.1,.68,1.43"/>
      <path class="cls-1" d="M426.5,170.78c.03-.87,.05-1.76,.05-2.66v-3.51c0-.9-.02-1.78-.05-2.65-.03-.87-.07-1.75-.11-2.65,.18,.03,.35,.05,.51,.07,.16,.02,.33,.03,.49,.03s.33,0,.49-.03c.16-.02,.33-.04,.51-.07-.04,.9-.08,1.78-.11,2.65-.04,.86-.05,1.75-.05,2.65v1.12c0,.11,.04,.16,.12,.16,.05,0,.15-.06,.29-.18,.48-.41,.98-.87,1.5-1.39,.52-.52,1.05-1.05,1.58-1.61,.53-.56,1.05-1.13,1.57-1.7,.52-.58,1.01-1.14,1.49-1.69,.15,.03,.29,.05,.43,.07,.14,.02,.27,.03,.41,.03,.16,0,.33,0,.49-.03,.16-.02,.33-.04,.49-.07-.48,.41-1.01,.89-1.61,1.45-.6,.56-1.2,1.13-1.81,1.72-.61,.59-1.19,1.16-1.74,1.73-.55,.56-1.01,1.06-1.38,1.48,1.1,1.24,2.22,2.5,3.34,3.79,1.12,1.29,2.26,2.58,3.42,3.87-.2-.03-.41-.04-.61-.04h-1.17c-.18,0-.37,.01-.56,.04-.49-.56-1.03-1.2-1.62-1.92-.59-.72-1.17-1.42-1.74-2.1-.57-.67-1.08-1.28-1.53-1.82s-.79-.91-1.01-1.13c-.11-.11-.19-.16-.25-.16-.07,0-.1,.04-.1,.12v1.78c0,.9,.01,1.79,.05,2.66,.03,.87,.07,1.73,.11,2.58-.31-.03-.64-.04-1-.04s-.69,.01-1,.04c.04-.85,.08-1.7,.11-2.58"/>
      <path class="cls-1" d="M455.33,161.94c-.03-.87-.07-1.74-.11-2.62,.61,.03,1.22,.05,1.83,.07,.61,.02,1.21,.03,1.83,.03s1.22-.01,1.82-.03c.6-.02,1.2-.04,1.82-.07-.04,.2-.06,.41-.06,.61s.02,.41,.06,.61c-.44-.03-.83-.05-1.2-.08-.36-.03-.74-.05-1.15-.08-.4-.03-.84-.05-1.32-.07-.48-.02-1.05-.03-1.72-.03-.01,.44-.03,.85-.05,1.24-.02,.4-.03,.85-.03,1.35,0,.53,0,1.05,.01,1.55,0,.5,0,.89,0,1.15,.6,0,1.14,0,1.62-.02,.48-.01,.91-.03,1.31-.05,.4-.02,.76-.04,1.09-.06,.33-.02,.65-.04,.95-.07-.04,.2-.06,.42-.06,.63s.02,.41,.06,.61c-.35-.04-.76-.08-1.24-.1-.47-.03-.94-.04-1.41-.05-.47,0-.91-.01-1.33-.02-.41,0-.75-.01-.99-.01,0,.12,0,.26,0,.4,0,.14-.01,.33-.01,.54v2.02c0,.78,0,1.42,.01,1.92,0,.5,.01,.89,.03,1.15h1.43c.52,0,1.02-.01,1.52-.03,.5-.02,.97-.05,1.41-.08,.44-.03,.83-.08,1.16-.15-.03,.1-.04,.2-.05,.32,0,.11-.01,.22-.01,.31,0,.22,.02,.4,.06,.53-.61-.03-1.23-.04-1.83-.04h-3.71c-.61,0-1.23,.01-1.86,.04,.04-.87,.08-1.74,.11-2.6,.03-.86,.05-1.75,.05-2.65v-3.51c0-.9-.02-1.79-.05-2.66"/>
      <path class="cls-1" d="M492.56,161.49c-.01-1.05-.05-1.77-.1-2.17,.15,.03,.29,.05,.43,.07,.14,.02,.27,.03,.41,.03,.18,0,.38-.03,.61-.1-.04,.48-.08,1.05-.12,1.7-.04,.66-.07,1.37-.1,2.13-.03,.76-.05,1.53-.08,2.33-.03,.79-.05,1.57-.06,2.32-.01,.91-.15,1.73-.42,2.45-.27,.72-.64,1.34-1.13,1.84s-1.09,.89-1.81,1.15c-.72,.26-1.54,.39-2.46,.39-2.05,0-3.53-.46-4.46-1.39-.93-.93-1.39-2.39-1.39-4.39,0-.64,.01-1.21,.05-1.71,.03-.5,.05-1,.05-1.52,0-1.14-.01-2.16-.04-3.04-.03-.89-.05-1.63-.08-2.25,.16,.03,.34,.05,.53,.07,.19,.02,.37,.03,.53,.03,.15,0,.3-.01,.44-.03,.15-.02,.29-.04,.44-.07-.03,.3-.05,.69-.08,1.17-.03,.48-.05,1.03-.08,1.65-.03,.61-.05,1.27-.06,1.98-.01,.71-.02,1.45-.02,2.21,0,.46,0,.94,.02,1.44,.01,.5,.06,.98,.14,1.45,.08,.47,.22,.92,.4,1.35,.18,.43,.45,.8,.79,1.12,.34,.32,.77,.57,1.29,.76,.52,.18,1.16,.27,1.92,.27s1.38-.11,1.89-.33c.51-.22,.93-.5,1.26-.86,.33-.35,.58-.76,.76-1.23,.18-.46,.32-.94,.4-1.45,.08-.5,.13-1.01,.14-1.51,.01-.5,.02-.97,.02-1.39,0-1.94,0-3.42-.02-4.47"/>
      <path class="cls-1" d="M517.3,166.31c.42,0,.86-.05,1.31-.15,.45-.1,.86-.27,1.23-.52,.38-.25,.68-.6,.92-1.04,.24-.44,.35-1.01,.35-1.7,0-.59-.08-1.06-.25-1.43-.16-.37-.39-.65-.68-.86-.29-.2-.65-.34-1.07-.42-.42-.07-.9-.11-1.43-.11h-1.84v6.07c.46,.11,.94,.16,1.45,.16m-3.18-4.34c-.03-.86-.07-1.75-.11-2.65,.33,.03,.66,.05,.99,.07,.33,.02,.67,.03,.99,.03,.16,0,.36,0,.59-.02,.23-.01,.46-.02,.7-.03,.24,0,.47-.02,.69-.03,.22-.01,.4-.02,.55-.02,.2,0,.46,0,.76,.02,.3,.01,.61,.05,.95,.12,.33,.07,.66,.17,.99,.31,.33,.14,.63,.33,.89,.59,.27,.26,.48,.58,.64,.97,.16,.39,.25,.87,.25,1.44,0,.9-.19,1.62-.58,2.18-.39,.56-.86,1-1.43,1.31-.56,.31-1.16,.53-1.8,.64-.63,.11-1.2,.16-1.69,.16-.31,0-.6,0-.86-.01-.26,0-.53-.02-.8-.05v1.13c0,.9,.01,1.78,.05,2.65,.03,.87,.07,1.73,.11,2.58-.31-.03-.64-.04-1-.04s-.69,.01-1,.04c.04-.85,.08-1.7,.11-2.58,.03-.87,.05-1.76,.05-2.65v-3.52c0-.9-.02-1.78-.05-2.65"/>
    </g>
  </g>
</svg>