<?xml version="1.0" encoding="UTF-8"?>
<svg id="Layer_2" data-name="Layer 2" xmlns="http://www.w3.org/2000/svg" viewBox="0 0 175.75 23.04">
  <defs>
    <style>
      .cls-1 {
        fill: #eaa87a;
        fill-rule: evenodd;
      }
    </style>
  </defs>
  <g id="Layer_1-2" data-name="Layer 1">
    <path class="cls-1" d="M61.91,9.54c.65,.36,1.47,.54,2.43,.54s1.76-.18,2.44-.54c.69-.33,1.01-.75,1.01-1.22,0-.5-.32-.89-1.01-1.22-.68-.36-1.46-.53-2.44-.5-.96-.04-1.76,.14-2.43,.5-.68,.33-1,.72-1,1.22,0,.47,.32,.9,1,1.22h0Z"/>
    <path class="cls-1" d="M110.86,9.5c.65,.33,1.47,.5,2.44,.5s1.76-.18,2.43-.5c.69-.36,1.01-.76,1.01-1.22,0-.5-.32-.93-1.01-1.25-.68-.32-1.5-.5-2.43-.5s-1.75,.18-2.44,.5c-.68,.32-1,.75-1,1.25,0,.46,.32,.86,1,1.22h0Z"/>
    <path class="cls-1" d="M173.95,19.02h-41.97c-8.8-1.12-9.61-4.94-9.85-6.31h0c0-.1-.04-.84-.05-1.09,.01-.04,.03-.07,.03-.11,.77-4.13,3.97-6.43,9.75-7.03h41.98c.99,0,1.78-.8,1.78-1.79s-.79-1.79-1.78-1.79h-42.11c-.06,0-.12,0-.18,.01-9.35,.96-12.22,5.93-12.96,9.93-.08,.21-.12,.45-.11,.7l.09,1.58c0,.07,0,.06,0,.12,.27,1.58,.87,2.97,1.77,4.17l-7.95-4.42L89.89,.48c-.56-.46-1.37-.55-2.04-.16l-30.3,17.67V2.12c0-.99-.8-1.79-1.8-1.79-.17,0-.33,.03-.48,.07-.24,0-.49,.06-.72,.17L27.67,13.55c-.13,.06-.24,.14-.35,.22l-2.88,1.43,3.1,1.56c.26,.13,.54,.19,.82,.19,.29,.02,.59-.03,.87-.17L53.96,4.84v15.98c0,.54,.24,1.01,.6,1.34,.55,.65,1.51,.84,2.27,.39l10.7-6.24s.04,.01,.05,.01l6.04-3.56h0l15.12-8.81,15.88,8.81h-27.9l-6.14,3.58h40.49l11.63,6.48c.87,.48,1.96,.17,2.44-.7,.19-.34,.25-.71,.21-1.07,1.76,.72,3.86,1.24,6.28,1.54,.07,0,.14,.02,.22,.02h42.1c.99,0,1.79-.8,1.79-1.8s-.8-1.79-1.79-1.79h0Z"/>
    <path class="cls-1" d="M2.67,.19C1.79-.26,.71,.1,.26,.98c-.12,.24-.18,.5-.19,.75-.04,.16-.08,.32-.08,.49V20.93c0,.99,.8,1.8,1.79,1.8s1.79-.8,1.79-1.8V4.67L22.72,14.33l4.02-1.98L2.67,.19h0Z"/>
  </g>
</svg>