<?xml version="1.0" encoding="UTF-8"?>
<svg id="Layer_2" data-name="Layer 2" xmlns="http://www.w3.org/2000/svg" viewBox="0 0 187.09 33.88">
  <defs>
    <style>
      .cls-1 {
        fill: #eaa87a;
        fill-rule: evenodd;
      }
    </style>
  </defs>
  <g id="Layer_1-2" data-name="Layer 1">
    <polygon class="cls-1" points="24.85 27.57 24.85 31.55 0 31.55 0 4.22 4.47 4.22 4.47 27.57 24.85 27.57 24.85 27.57"/>
    <polygon class="cls-1" points="21.37 14.16 26.34 4.72 21.62 4.72 17.89 14.16 21.37 14.16 21.37 14.16"/>
    <path class="cls-1" d="M61.99,8.71c-1.61-2.53-3.96-4.67-6.74-6.12-2.77-1.45-5.96-2.23-9.15-2.23s-6.38,.77-9.15,2.23c-2.77,1.45-5.12,3.58-6.74,6.12-1.61,2.53-2.48,5.47-2.48,8.41s.87,5.88,2.48,8.41c1.61,2.53,3.96,4.67,6.74,6.12,2.77,1.45,5.96,2.23,9.15,2.23s6.38-.77,9.15-2.23c2.77-1.45,5.12-3.58,6.74-6.12,1.61-2.53,2.48-5.47,2.48-8.41s-.87-5.88-2.48-8.41h0Zm-3.87,15.1c-1.2,1.99-2.96,3.66-5.04,4.81-2.08,1.14-4.47,1.75-6.86,1.75s-4.79-.61-6.86-1.75c-2.08-1.14-3.83-2.82-5.04-4.81-1.2-1.99-1.85-4.29-1.85-6.59s.65-4.6,1.85-6.59c1.2-1.99,2.96-3.67,5.04-4.81,2.08-1.14,4.47-1.76,6.86-1.76s4.79,.61,6.86,1.76c2.08,1.14,3.83,2.82,5.04,4.81,1.2,1.99,1.85,4.29,1.85,6.59s-.65,4.6-1.85,6.59h0Z"/>
    <path class="cls-1" d="M95.66,16.01c-.81,1.78-2.34,2.81-3.54,3.43-1.2,.62-2.06,.84-2.93,.81h0l8.7,11.3h-4.97l-8.41-10.93h-10.97v10.93h-4.47V4.22h17.89c1.81,0,3.64,.36,5.26,1.27,1.62,.91,3.02,2.29,3.68,4.25,.66,1.96,.57,4.49-.23,6.27h0Zm-5-.19c.94-.8,1.5-2.11,1.45-3.4-.05-1.3-.7-2.59-1.64-3.37-.94-.78-2.13-.85-3.26-.85h-13.66v8.45h13.66c1.21,0,2.51-.03,3.45-.82h0Z"/>
    <polygon class="cls-1" points="121.49 15.9 121.49 19.62 106.34 19.62 106.34 27.57 126.71 27.57 126.71 31.55 101.87 31.55 101.87 4.22 126.71 4.22 126.71 8.2 106.34 8.2 106.34 15.9 121.49 15.9 121.49 15.9"/>
    <polygon class="cls-1" points="121.74 0 115.03 0 112.3 3.48 121.74 0 121.74 0"/>
    <path class="cls-1" d="M135.47,24.59l-3.54,6.96h-4.47l13.91-27.32h4.47l13.91,27.32h-4.47l-3.54-6.96h-16.27Zm8.14-15.98l-6.36,12.5h12.73l-6.36-12.5h0Z"/>
    <polygon class="cls-1" points="186.84 27.57 186.84 31.55 161.99 31.55 161.99 4.22 166.46 4.22 166.46 27.57 186.84 27.57 186.84 27.57"/>
    <path class="cls-1" d="M184.9,9.71l-.04-.65h0c0-.12,0-.24-.05-.38-.05-.14-.13-.28-.22-.38-.09-.1-.18-.14-.28-.15,.18-.06,.34-.19,.46-.38,.12-.19,.19-.43,.18-.7,0-.27-.08-.55-.22-.76-.3-.45-.84-.52-1.31-.5h-1.98v4.56h.77v-1.88h1.15c.13,0,.33-.02,.54,.15,.28,.33,.15,.76,.2,1.12,0,.22,.03,.42,.12,.61h.86v-.14h0c-.16-.06-.17-.29-.19-.52h0Zm-.95-2.01c-.24,.15-.48,.15-.65,.15h-1.08v-1.39h0c.47,0,.95-.02,1.42,.02,.18,.02,.4,.13,.51,.36,.1,.3,.1,.63-.19,.86h0Z"/>
    <path class="cls-1" d="M186.57,6.15c-.34-.58-.83-1.07-1.41-1.41-.58-.34-1.25-.52-1.93-.52s-1.34,.18-1.93,.52c-.58,.34-1.07,.83-1.41,1.41-.34,.58-.52,1.25-.52,1.93s.18,1.34,.52,1.93c.34,.58,.83,1.07,1.41,1.41,.58,.34,1.25,.52,1.93,.52s1.34-.18,1.93-.52c.58-.34,1.07-.83,1.41-1.41,.34-.58,.52-1.25,.52-1.93s-.18-1.34-.52-1.93h0Zm-.46,3.6c-.29,.49-.7,.91-1.2,1.2-.49,.28-1.07,.44-1.64,.44s-1.14-.15-1.64-.44c-.49-.28-.91-.7-1.2-1.2-.29-.49-.44-1.06-.44-1.63s.15-1.14,.44-1.63c.29-.49,.7-.91,1.2-1.2,.49-.28,1.07-.44,1.64-.44s1.14,.15,1.64,.44c.5,.28,.91,.7,1.2,1.2,.29,.49,.44,1.06,.44,1.63s-.15,1.14-.44,1.63h0Z"/>
  </g>
</svg>