<?xml version="1.0" encoding="UTF-8"?>
<svg id="Layer_2" data-name="Layer 2" xmlns="http://www.w3.org/2000/svg" viewBox="0 0 187.09 159.52">
  <defs>
    <style>
      .cls-1 {
        fill: #eaa87a;
        fill-rule: evenodd;
      }
    </style>
  </defs>
  <g id="Layer_1-2" data-name="Layer 1">
    <path class="cls-1" d="M79.89,88.59c-.29-6.9,3.52-16.01,3.23-23.06-1.47-2.79-3.23-4.7-2.79-8.66h2.94c.44-1.47,1.03-4.11,.15-6.02l-3.67-.15c.15-.73,.15-.44,.15-1.76l3.38-.29c1.62-3.67-1.47-8.22,.44-11.31l1.91-.15c1.76,3.23-1.17,8.37,.15,11.6l3.52,.29v1.76c-1.47-.15-2.06-.29-3.23,0-.73,1.47-.73,4.55,.15,6.17l2.79,.15c0,2.64,.44,4.99-2.64,8.22-.15,7.05,3.23,16.01,3.23,23.06-3.52,0-6.17-.15-9.69,.15h0Z"/>
    <path class="cls-1" d="M95.16,84.04c-2.2-.44-4.11-1.62-5.14-3.82-.88-2.94-1.62-6.61,1.47-8.66,6.02-2.2,13.22,3.38,18.65,6.61,1.91,1.03,6.46,2.06,6.75,.73,.15-1.03,.15-1.62-1.03-2.64-6.17-5.58-24.52-4.7-21.88-17.62,9.99,6.31,28.93,5.87,31.43,17.92,.29,1.76-.29,4.99-1.47,6.31-2.94,2.64-11.01,1.32-15.57-1.76-3.23-1.76-9.1-5.29-11.31-3.82-2.35,1.47-2.64,3.08-1.91,6.76h0Z"/>
    <path class="cls-1" d="M102.94,60.69c-2.64-1.17-4.99-2.79-8.22-3.23-.44-1.03-.73-2.35-.15-3.97,2.2-1.03,6.02,.88,8.66,2.5,.88,.59,.88,3.82-.29,4.7h0Z"/>
    <path class="cls-1" d="M114.25,58.04c-2.06-1.76,.88-4.99-.59-7.2-.15-.44-2.64,.88-2.79-1.32-.15-1.76,3.08-1.91,4.11-1.47,.15-4.26,0-6.75,0-9.84,.59-.73,1.17-.73,1.91,0,0,3.38,.15,6.17,0,9.84,1.47,.15,4.11-.73,3.96,1.47-.15,1.32-1.47,1.03-2.06,1.32-1.47,2.06,1.32,4.41-.29,7.05-2.2,0-1.91,.15-4.26,.15h0Z"/>
    <path class="cls-1" d="M94.86,50.7c-.88-1.03-.73-2.94-.15-3.96,2.06,0,7.78,1.17,9.25,3.67,.59,.73,.59,2.94-.29,3.38l-8.81-3.08h0Z"/>
    <path class="cls-1" d="M104.41,48.21c-2.35-1.47-4.7-2.64-8.66-2.64l-2.5-2.5c-1.76-.73-3.52-1.32-5.87-1.03,.15-2.64,0-3.52,0-5.14h4.99l6.9,3.08,2.35-1.62-2.35,.44-6.61-3.38-2.5-.29c1.17-1.91,2.64-5.43,2.64-7.34,0-3.52,.29-7.93,4.7-9.84,4.11-.73,5.29,.59,7.2,3.23,1.03,2.64,1.76,6.02,1.76,8.81,0,1.17-.59,1.91-1.47,2.35l-3.08,.29c-.29,1.62-.15,2.94-.15,4.85,3.67,0,7.34-.15,11.16-.29,0,2.2,.29,3.23,.29,5.58-2.2,1.03-6.02-1.47-8.81,5.43h0Z"/>
    <path class="cls-1" d="M118.95,42.33c-.29-1.03,0-3.23-.29-4.26,1.47-.44,2.94-1.03,2.94-1.32,.73-4.11,2.06-7.34,2.64-10.87,.15-1.17-.44-3.52,1.47-4.85,.29-1.17,.29-1.62,.73-2.35,1.32,3.67,.59,6.17-.59,8.08-.73,4.7-1.03,9.4-2.2,13.66-1.03,2.06-3.67,1.47-4.7,1.91h0Z"/>
    <path class="cls-1" d="M78.27,40.86c-3.38-3.97-2.2-7.49-4.41-13.07-.88-2.79-1.17-7.05-.59-7.34,.44,2.5,1.76,1.62,2.2,3.38,.44,1.47-.15,2.35,.15,3.52,.88,2.5,1.76,6.76,3.96,8.96,.73,.73,1.62,.73,2.79,1.17v3.52c-1.17,.44-2.5,.44-4.11-.15h0Z"/>
    <path class="cls-1" d="M98.54,17.37c-3.08-2.06-6.31-4.11-8.37-8.52,2.94-.15,6.17,.29,8.52,3.08,5.14-4.26,7.49-2.94,8.52-3.08-1.03,3.96-5.87,6.46-8.66,8.52h0Z"/>
    <path class="cls-1" d="M99.29,0c2.52,0,4.57,2.05,4.57,4.57s-2.05,4.57-4.57,4.57-4.57-2.05-4.57-4.57,2.05-4.57,4.57-4.57h0Z"/>
    <path class="cls-1" d="M44.87,115.19c5.26-8.14,23.31-12.66,27.63-1.5,2.51,7.39,.56,15.91-4.57,22.24-4.7,3.82-8.08,7.58-18.67,6.7-13.09-2.69-9.77-20.74-4.39-27.44h0Zm5.51,20.05c-5.58-2.19-.75-13.28,1-15.54,2.38-3.01,8.77-6.64,12.78-4.64,3.26,2.38,1.13,8.52-.63,12.91-4.01,7.14-10.4,7.77-13.16,7.27h0Z"/>
    <path class="cls-1" d="M124.09,159.37l10.87-18.06c-1.62-.15-3.38,0-4.99-.15-1.76-.29-2.5-1.17-2.94-2.5-.44-8.81,0-19.38-.15-28.49,2.5-.29,4.7,0,7.49-.15l.15,22.32c.15,1.62,.88,2.64,3.52,1.76l13.95-24.08c2.79-.15,6.02,.15,9.1,0l-29.22,49.49c-1.03,0-6.17-.15-7.78-.15h0Z"/>
    <path class="cls-1" d="M148.32,141.31c1.03-1.03,3.82-4.7,5.14-6.61,5.58-.15,7.2,0,11.75-.59,.73-.73,1.03-2.5,1.03-2.94-.88-7.49-1.17-10.28-2.06-15.71-.44-3.23-.15-5.73,4.85-5.43,7.64,0,12.63,.15,18.06,.15-1.17,2.2-2.64,4.41-3.82,6.61h-10.28c-1.76,.29-2.64,.73-2.64,2.94l2.2,16.45c0,3.96-1.76,4.7-3.38,5.29-6.61,0-14.24-.15-20.85-.15h0Z"/>
    <path class="cls-1" d="M31.28,141.16H0c3.23-4.85,4.55-6.75,7.34-10.72H23.64c2.06-.29,2.79-1.03,3.08-3.52-1.17-9.84-1.91-16.15-3.23-25.85-.59-6.02,2.79-6.46,4.26-6.75,9.84-.59,19.68-.15,30.55-.15-2.06,3.38-4.26,6.9-6.31,10.28-1.62,0-9.99,.29-15.27,0-2.06,0-3.96,2.2-3.96,3.52,.73,6.02,2.5,13.07,2.94,22.03,.15,3.52,0,10.28-4.41,11.16h0Z"/>
    <path class="cls-1" d="M74.31,141.31c-1.62-.73-3.82-1.91-2.35-6.17,4.55-8.52,6.75-11.31,10.72-18.8-2.06-.15-3.82-.15-6.02-.15,1.17-2.79,1.62-3.97,2.64-6.31,3.08,0,4.26,.15,7.2,.15l8.37-15.71c2.94,.15,5.14-.15,8.37,0l-8.22,15.42c2.94,.29,4.26,.15,5.73,.29l-3.82,6.31c-1.91,0-3.38-.15-5.87-.15-2.35,4.7-5.73,9.84-9.1,16.15-.15,.44-.15,1.76-.15,2.5,.73,.73,1.32,1.32,4.7,1.17-.88,1.47-2.64,3.67-3.96,5.29h-8.22Z"/>
    <path class="cls-1" d="M86.49,141.6l24.38-41.56c1.76-2.35,2.06-3.38,3.52-5.87,4.26,0,5.43,0,7.93-.15l-8.37,15.86c4.41,.29,7.05,.59,7.05,8.08s-.15,15.71-.15,23.5c-2.79,0-4.55,.15-7.78,0-.29-9.4,.15-15.27-.15-22.47-.59-2.06-.73-3.08-3.38-.73-4.41,7.05-8.52,14.54-13.8,23.2-2.94,.15-5.87,0-9.25,.15h0Z"/>
    <polygon class="cls-1" points="90.69 86.2 124.27 86.2 124.27 88.51 90.69 88.51 90.69 86.2 90.69 86.2"/>
  </g>
</svg>