<svg width="4810" height="1021" viewBox="0 0 4810 1021" fill="none" xmlns="http://www.w3.org/2000/svg">
<g clip-path="url(#clip0_9_60)">
<path d="M3950.85 912.094C3634.24 828.6 3301.98 664.258 2981.56 596.878C2651.83 527.374 2307.92 531.422 1977.67 598.442C1745.83 645.459 1520.72 722.98 1288.24 766.23C856.233 845.693 410.716 805.368 0 649.628L0 1021H4810V923.998C4538.19 1016.67 4231.64 986.168 3950.85 912.094Z" fill="#171717"/>
<g clip-path="url(#clip1_9_60)">
<path d="M4360.29 834.084C4380.3 819.579 4392.71 796.76 4393.57 772.067C4394.58 742.783 4384.04 704.85 4327.39 691.841C4233.14 670.229 4203.71 744.995 4203.71 744.995C4203.71 744.995 4088.15 748.046 4066.24 752.756C4046.97 756.898 4033.25 749.137 4030.23 747.212C4029.81 746.935 4029.59 746.797 4029.59 746.797C4029.59 746.797 4163.69 652.961 4235.42 633.775C4235.42 633.775 4278.64 699.347 4347.05 674.49C4415.46 649.632 4425.51 608.632 4410.44 543.085L4476.29 496.129C4481.21 492.611 4482.17 485.672 4478.37 480.971C4475.65 477.59 4471.21 476.306 4467.23 477.463C4466.23 477.754 4465.25 478.211 4464.34 478.819L4392.63 526.589C4392.63 526.589 4337.27 485.186 4278.93 525.126C4249.02 545.598 4243.89 565.816 4237.15 580.697C4232.12 591.849 4223.73 601.149 4213.06 607.138C4163.3 635.066 4019.84 713.637 3908.4 755.459C3891.13 761.939 3871.31 769.214 3849.91 776.975C3716.96 825.164 3522.09 891.947 3483.28 905.226C3479.44 906.545 3477.3 910.624 3478.45 914.552C3479.01 916.503 3480.3 918.073 3481.94 918.997C3483.59 919.947 3485.57 920.285 3487.55 919.797L3666.93 875.984L3967.53 802.57L3978.48 799.903C3978.48 799.903 4155.52 756.771 4191.36 771.283C4227.18 785.802 4194.21 820.456 4260.14 846.067C4303.62 862.961 4337.94 850.271 4360.26 834.092L4360.29 834.084ZM4308.11 538.058C4343.87 527.666 4380.42 545.29 4389.76 577.425C4399.1 609.561 4377.69 644.029 4341.93 654.421C4306.18 664.813 4269.63 647.19 4260.29 615.054C4250.95 582.919 4272.36 548.45 4308.11 538.058ZM4232.3 789.06C4222.96 756.924 4244.37 722.456 4280.13 712.064C4315.89 701.672 4352.44 719.295 4361.78 751.431C4371.12 783.566 4349.71 818.035 4313.95 828.427C4278.19 838.819 4241.64 821.195 4232.3 789.06V789.06Z" fill="#171717"/>
</g>
<g clip-path="url(#clip2_9_60)">
<path d="M2045.36 51.3146L2026.67 105.343C2023.79 113.734 2016.02 119.537 2007.15 119.78C2004.23 119.833 2000.83 119.666 1996.86 119.174C1973.05 116.127 1942.22 128.429 1917.78 166.626C1901.65 191.876 1898.06 224.93 1897.49 244.43C1897.17 256.198 1894.29 267.721 1888.96 278.215C1864.55 326.195 1795.93 459.831 1769.75 496.038C1769.75 496.038 1698.69 523.406 1689.8 531.596C1682.98 537.86 1657.3 570.218 1645.7 584.962C1643.53 587.72 1642.91 591.051 1643.45 594.36L1643.23 594.456C1641.56 594.978 1639.93 595.77 1638.48 596.942L1318.43 855.827C1312.21 860.854 1310.81 870.486 1315.84 876.702L1327.66 891.321C1329.41 893.481 1331.9 894.779 1334.15 895.741L1337.31 899.639C1336.52 902.278 1337.21 904.904 1338.98 907.09L1351.12 922.104C1354.1 925.792 1359.62 926.254 1363.24 923.193L1740.85 607.257L1744.07 601.43L1744.09 601.457L1819.78 522.283C1819.78 522.283 2038.95 440.21 2051.9 440.977C2064.85 441.744 2128.08 471.648 2178.9 413.718C2229.71 355.761 2191.83 308.928 2180.72 296.602C2169.6 284.249 2128.82 253.225 2062.62 286.598L2051.23 274.94C2081.84 240.503 2094.87 202.641 2051.34 144.3C2047.4 138.993 2046.04 132.249 2047.54 125.808L2063.74 56.5812C2064.88 51.7394 2062.09 46.8444 2057.37 45.3089C2052.43 43.7269 2047.14 46.3952 2045.46 51.277L2045.36 51.3146ZM2083.12 299.293C2122.6 285.183 2164.96 302.643 2177.69 338.267C2190.45 373.917 2168.75 414.258 2129.28 428.368C2089.8 442.478 2047.44 425.018 2034.71 389.394C2021.95 353.744 2043.65 313.402 2083.12 299.293V299.293ZM2036.9 289.709L2041.21 295.898C2043.11 299.977 2041.93 304.814 2038.4 307.621C2026.15 317.406 2001.51 345.393 2016.61 404.681C2016.61 404.681 2024.38 425.374 1989.53 437.829C1961.75 447.755 1848.13 482.139 1803.22 495.674L1883.38 352.009C1883.38 352.009 1912.29 290.195 1924.48 296.156C1946.72 307.011 2002.25 322.179 2036.9 289.709V289.709ZM2033.13 155.984C2063.02 179.209 2066.41 224.877 2040.71 258.003C2015 291.128 1969.9 299.152 1940.01 275.926C1910.11 252.701 1906.72 207.033 1932.43 173.908C1958.13 140.782 2003.23 132.758 2033.13 155.984Z" fill="#171717"/>
</g>
<g clip-path="url(#clip3_9_60)">
<path d="M1003.32 47.4225C930.188 53.4762 916.745 116.567 916.745 116.567L913.361 114.798C907.506 111.754 900.14 114.228 897.276 120.215C895.089 124.692 895.895 130.183 899.407 133.696L911.533 145.822C905.141 217.734 976.159 257.044 976.159 257.044C976.159 257.044 991.697 375.669 993.046 398.468C994.343 420.798 975.928 487.456 975.12 490.293C974.027 490.761 944.172 503.651 927.23 501.755C909.974 499.858 721.241 456.695 693.707 448.164C679.003 443.612 656.91 426.153 658.086 404.994C659.679 376.286 644.823 352.944 649.899 349.689C653.439 347.45 656.094 345.264 658.073 343.337C661.769 339.745 662.577 334.097 660.08 329.569L659.403 328.372C656.385 322.959 649.593 320.904 644.101 323.742L628.717 331.684C628.717 331.684 593.515 280.653 533.806 300.863C480.084 319.04 466.306 363.939 466.306 363.939L386.694 353.259C378.86 352.193 371.832 358.129 371.544 366.015C371.308 372.495 375.757 378.194 382.082 379.572L464.139 397.331C464.139 397.331 486.286 524.231 640.659 473.369C640.659 473.369 677.697 462.82 756.343 489.662C808.913 507.61 923.08 553.834 992.851 582.37L1167.19 1023.32L1176.58 1013.93L1080.55 620.194C1171.58 662.858 1442.91 789.028 1455.66 782.623C1470.99 774.942 1366.46 722.209 1366.46 722.209L1057.61 539.049C1047.37 490.225 1016.3 340.919 1011.28 302.323C1005.26 256.049 1022.02 247.301 1022.02 247.301C1091.15 222.457 1103.99 170.167 1101.79 140.524C1100.54 123.815 1076.41 41.3169 1003.27 47.3705L1003.32 47.4225ZM621.174 435.348C597.144 469.161 550.79 477.474 517.611 453.927C484.432 430.38 477.025 383.873 501.002 350.059C525.032 316.246 571.386 307.934 604.565 331.481C637.744 355.027 645.151 401.535 621.174 435.348ZM1070.52 191.828C1045.97 226.423 998.546 234.917 964.613 210.824C930.68 186.731 923.09 139.208 947.64 104.614C972.191 70.02 1019.61 61.5253 1053.55 85.6185C1087.48 109.712 1095.07 157.234 1070.52 191.828Z" fill="#171717"/>
</g>
</g>
<defs>
<clipPath id="clip0_9_60">
<rect width="4810" height="1021" fill="white"/>
</clipPath>
<clipPath id="clip1_9_60">
<rect width="331" height="1082" fill="white" transform="translate(4474.01 463) rotate(73.7946)"/>
</clipPath>
<clipPath id="clip2_9_60">
<rect width="369" height="1102" fill="white" transform="translate(1431.06 1020.93) rotate(-128.968)"/>
</clipPath>
<clipPath id="clip3_9_60">
<rect width="705" height="1065" fill="white" transform="translate(366 366.51) rotate(-45)"/>
</clipPath>
</defs>
</svg>
