<svg width="335" height="313" viewBox="0 0 335 313" fill="none" xmlns="http://www.w3.org/2000/svg">
<g clip-path="url(#clip0_7_18)">
<path d="M17.9197 307.539C18.9698 304.307 18.5739 300.216 18.6427 296.88C18.7804 290.726 18.8321 284.554 18.8665 278.383C18.9526 265.747 18.9526 253.094 18.9181 240.459C18.9181 239.101 18.9181 237.76 18.9009 236.402L26.3718 236.402C25.1152 257.375 25.5971 278.692 25.5971 299.683C25.5971 303.413 31.3982 303.413 31.3982 299.683C31.3982 278.692 30.9162 257.375 32.1729 236.402C34.9099 236.402 37.6641 236.402 40.4183 236.402C39.1789 257.375 39.6437 278.692 39.6437 299.665C39.6437 303.396 45.4448 303.396 45.4448 299.665C45.4448 278.692 44.9628 257.358 46.2194 236.402L53.8107 236.402C52.5541 257.375 53.0361 278.692 53.0361 299.665C53.0361 303.396 58.8372 303.396 58.8372 299.665C58.8372 278.692 58.3552 257.358 59.6118 236.402C62.3661 236.402 65.1031 236.402 67.8573 236.402C66.6179 257.358 67.0999 278.692 67.0999 299.665C67.0999 303.396 72.901 303.396 72.901 299.665C72.901 278.692 72.419 257.375 73.6756 236.402L81.112 236.402C79.8554 257.358 80.3374 278.692 80.3374 299.665C80.3374 303.396 86.1385 303.396 86.1385 299.665C86.1385 278.692 85.6565 257.375 86.9131 236.402L95.1586 236.402C93.9019 257.358 94.3839 278.692 94.3839 299.665C94.3839 303.396 100.185 303.396 100.185 299.665C100.185 278.692 99.703 257.375 100.96 236.402C103.49 236.402 106.021 236.402 108.534 236.402C107.294 257.358 107.776 278.675 107.776 299.648C107.776 303.379 113.577 303.379 113.577 299.648C113.577 278.675 113.095 257.358 114.352 236.402L122.598 236.402C121.358 257.358 121.823 278.675 121.823 299.648C121.823 303.379 127.624 303.379 127.624 299.648C127.624 278.675 127.142 257.358 128.399 236.402L137.47 236.402C136.231 257.358 136.696 278.675 136.696 299.648C136.696 303.379 142.497 303.379 142.497 299.648C142.497 278.675 142.015 257.358 143.271 236.402C146.026 236.402 148.763 236.402 151.517 236.402C150.278 257.358 150.759 278.675 150.759 299.648C150.759 303.379 156.561 303.379 156.561 299.648C156.561 278.675 156.079 257.358 157.335 236.402C159.866 236.402 162.396 236.402 164.927 236.402C163.687 257.358 164.169 278.675 164.169 299.648C164.169 303.379 169.97 303.379 169.97 299.648C169.97 278.675 169.488 257.358 170.745 236.402C173.482 236.402 176.253 236.402 178.99 236.402C177.751 257.358 178.216 278.675 178.216 299.631C178.216 303.362 184.017 303.362 184.017 299.631C184.017 278.658 183.535 257.341 184.791 236.402L192.228 236.402C190.988 257.358 191.453 278.675 191.453 299.631C191.453 303.362 197.254 303.362 197.254 299.631C197.254 278.658 196.772 257.341 198.029 236.402L206.274 236.402C205.035 257.358 205.5 278.675 205.5 299.631C205.5 303.362 211.301 303.362 211.301 299.631C211.301 278.658 210.819 257.341 212.075 236.402L219.667 236.402C218.427 257.358 218.892 278.675 218.892 299.631C218.892 303.362 224.693 303.362 224.693 299.631C224.693 278.658 224.211 257.341 225.468 236.402L233.713 236.402C232.474 257.358 232.939 278.675 232.939 299.631C232.939 303.362 238.74 303.362 238.74 299.631C238.74 278.658 238.258 257.341 239.514 236.402L247.932 236.402C246.693 257.358 247.157 278.675 247.157 299.631C247.157 303.362 252.958 303.362 252.958 299.631C252.959 278.658 252.477 257.341 253.733 236.402L261.17 236.402C259.93 257.358 260.395 278.675 260.395 299.631C260.395 303.362 266.196 303.362 266.196 299.631C266.196 278.658 265.714 257.341 266.971 236.402L275.216 236.402C273.977 257.358 274.441 278.675 274.441 299.631C274.441 303.362 280.243 303.362 280.243 299.631C280.243 278.658 279.761 257.341 281.017 236.402L288.609 236.402C287.369 257.358 287.834 278.675 287.834 299.631C287.834 303.362 293.635 303.362 293.635 299.631C293.635 278.658 293.153 257.341 294.41 236.402C297.147 236.402 299.918 236.402 302.655 236.402C301.416 257.358 301.898 278.675 301.88 299.648C301.88 303.379 307.682 303.379 307.682 299.648C307.682 278.675 307.2 257.358 308.456 236.402L309.093 236.402C310.711 236.402 313.138 236.745 315.393 236.745C315.393 237.811 315.428 238.894 315.411 239.96C315.393 244.378 315.325 248.779 315.238 253.18C315.049 263.598 314.808 273.982 314.567 284.4C314.447 289.849 313.483 295.986 314.309 301.402C314.894 305.149 317.683 309.017 321.522 309.963C327.047 311.355 330.146 306.439 331.815 301.986C331.833 301.952 331.85 301.9 331.867 301.866C331.919 301.746 331.97 301.625 332.005 301.488C332.056 301.316 332.091 301.144 332.143 300.972L332.143 300.938C333.158 296.88 333.193 292.428 333.416 288.302C333.864 280.858 334.088 273.414 334.294 265.953C334.484 259.008 334.639 252.046 334.776 245.083C334.897 238.894 335.637 232.327 334.363 226.242C330.92 210.288 317.08 212.523 304.876 212.523L37.251 212.523C29.4531 212.523 21.2764 211.818 13.4957 212.643C8.02172 213.228 2.71985 216.133 1.0501 221.686C0.0344756 225.107 0.258266 229.044 0.172196 232.551C-0.137655 245.702 0.051688 258.871 0.189399 272.022C0.292682 282.027 0.344323 292.05 0.619745 302.038C0.723029 305.923 1.70423 309.293 5.28473 311.441C9.86363 314.175 16.1639 312.92 17.9197 307.522L17.9197 307.539Z" fill="#EAA87A"/>
</g>
<g clip-path="url(#clip1_7_18)">
<path d="M1.4105 130.147C0.384398 141.167 3.82611 151.588 10.9019 158.771C16.9516 164.946 25.1604 168.247 34.2029 168.247C35.1863 168.247 36.1696 168.205 37.1743 168.14C59.3637 166.404 71.399 150.966 81.831 135.293C82.8571 133.749 83.7977 132.098 84.7169 130.49C86.9401 126.63 89.2489 122.642 92.4554 120.434C96.5598 117.604 101.583 115.545 106.436 113.573C107.89 112.994 109.322 112.394 110.69 111.815C118.792 108.341 125.141 105.983 131.233 104.117L132.452 103.753C135.894 102.702 138.608 101.845 141.751 102.016L151.755 102.574C164.004 103.26 176.254 103.924 188.481 104.589C219.414 106.283 249.684 107.955 280.082 109.52L284.806 109.756C293.079 110.207 301.609 110.635 310.01 110.978C316.53 111.257 325.786 111.021 331.109 106.068C333.525 103.817 334.807 100.901 334.914 97.3634C335.021 94.0186 332.349 91.2098 328.843 90.9954L213.599 84.07L327.603 77.2088C331.109 76.9944 333.76 74.2071 333.674 70.8408C333.567 67.1744 332.263 64.1512 329.784 61.8785C323.841 56.3896 312.853 56.9899 305.585 57.3544L303.917 57.4402C290.706 58.062 277.282 58.7695 264.306 59.4557L260.18 59.6701C227.452 61.4068 194.745 63.1864 162.038 65.0089C159.387 65.159 156.672 65.3734 154.043 65.6307C148.848 66.0809 143.504 66.5526 138.502 66.3382C136.236 66.231 133.628 65.3519 131.127 64.5372C130.378 64.2799 129.652 64.0226 128.925 63.8296C120.994 61.3639 113.234 58.1263 107.398 55.5748C106.008 54.9745 104.448 54.3741 102.823 53.7523C97.479 51.6726 91.3866 49.314 88.4579 45.6905C87.8166 44.8758 87.218 43.8037 86.5767 42.6459C86.1706 41.9169 85.7644 41.1879 85.3582 40.5018C75.1614 23.9279 63.4895 5.14552 41.8773 0.921639C34.8442 -0.450587 21.5263 -1.5012 11.5432 7.03233C5.0446 12.5641 0.87607 21.4407 0.106496 31.3679C-1.21888 48.8852 9.17037 68.8039 28.8586 71.8057C39.1838 73.3709 50.6846 70.5407 61.5656 67.4746C62.8909 67.1101 64.2377 66.617 65.5417 66.1453C68.1283 65.2019 70.7791 64.1941 73.045 64.3228C75.9523 64.966 78.9879 66.5312 81.9379 68.0535C82.8571 68.5038 83.7763 68.9755 84.6742 69.4043C91.3652 72.6419 98.099 76.1153 103.785 79.0528C107.227 80.8538 110.647 82.6334 114.068 84.4559C110.519 86.3213 106.949 88.1652 103.4 90.0306C97.5645 93.0538 91.2583 96.2699 84.9093 99.336C84.0115 99.7648 83.0709 100.258 82.0875 100.773C79.4368 102.166 76.6791 103.603 74.3277 103.946C72.6816 104.182 70.5225 103.367 68.449 102.574C67.5511 102.231 66.6747 101.909 65.8196 101.652C56.9267 98.8857 47.7987 97.4492 39.2693 96.2913H39.1838C30.2268 95.3479 21.8683 97.8351 15.0063 103.453C7.35332 109.735 2.39384 119.448 1.38912 130.125L1.4105 130.147ZM51.8176 137.201C46.8581 142.604 38.7562 146.742 32.792 144.276C27.5119 141.36 23.5571 135.636 26.443 129.332C27.7684 126.437 30.2482 124.293 33.2837 122.878C34.3312 122.385 35.4428 121.978 36.5971 121.678C38.7562 121.077 41.0863 120.777 43.3951 120.777C45.2762 120.777 47.136 120.97 48.889 121.356C52.0955 122.063 54.2332 123.779 55.0242 126.309C56.0503 129.611 54.789 133.985 51.8176 137.201V137.201ZM42.54 47.4487C35.6779 47.5988 25.2245 44.4684 24.3053 35.6561C24.0061 32.6115 25.1177 29.4382 27.405 26.9725C29.6496 24.5282 32.621 23.1774 35.6566 23.2632C42.3048 23.4562 49.9364 28.5591 53.485 35.163C54.1905 37.0498 54.4684 38.5078 54.3829 39.9014C54.3401 40.5875 54.1691 41.4452 53.9339 42.2599C53.8271 42.6673 53.6988 43.0747 53.5705 43.4606C53.5064 43.6322 53.4423 43.8251 53.3781 43.9752C53.314 44.1468 53.2499 44.2968 53.1644 44.4469C52.9934 44.8543 52.8223 45.1545 52.6513 45.326C52.4803 45.4975 52.2665 45.6262 52.01 45.7548C50.2143 46.6982 46.452 47.3844 42.5186 47.4272L42.54 47.4487ZM135.381 83.5983C135.381 79.9533 138.331 77.0159 141.943 77.0159C145.556 77.0159 148.506 79.9747 148.506 83.5983C148.506 87.2218 145.556 90.1807 141.943 90.1807C138.331 90.1807 135.381 87.2218 135.381 83.5983V83.5983Z" fill="#EAA87A"/>
</g>
<defs>
<clipPath id="clip0_7_18">
<rect width="100.62" height="335" fill="white" transform="translate(335 212.248) rotate(90)"/>
</clipPath>
<clipPath id="clip1_7_18">
<rect width="335" height="168.248" fill="white"/>
</clipPath>
</defs>
</svg>
