<svg width="335" height="313" viewBox="0 0 335 313" fill="none" xmlns="http://www.w3.org/2000/svg">
<g clip-path="url(#clip0_7_15)">
<path d="M334.886 262.802C334.886 262.532 334.8 262.262 334.743 262.016C334.743 261.918 334.743 261.82 334.743 261.697C332.087 246.422 321.807 231.539 313.183 218.204C304.615 204.967 294.364 192.024 280.742 182.25C268.891 173.777 254.584 167.515 239.249 165.624C231.71 164.69 224.799 166.311 217.489 166.115C208.436 165.82 200.297 154.204 195.3 147.254C209.35 125.077 220.658 100.371 226.027 75.6162C229.797 58.2041 230.425 39.8588 228.94 22.2011C228.397 15.8404 227.798 9.11134 225.656 2.92256C224.199 -1.32608 218.117 -0.662999 216.375 2.92256C200.069 36.9117 183.734 70.9009 167.429 104.89C151.094 70.9009 134.76 36.9117 118.454 2.92256C116.74 -0.662999 110.629 -1.32608 109.173 2.92256C107.059 9.11134 106.431 15.8159 105.889 22.2011C104.375 39.8588 105.032 58.1795 108.801 75.6162C114.113 100.371 125.45 125.077 139.5 147.229C135.502 152.387 131.133 157.225 126.192 161.743C119.824 167.49 113.913 165.132 105.717 165.034C93.3521 164.887 81.1298 167.957 70.2211 172.893C45.9193 183.871 30.0988 204.082 17.7051 224.466C5.8255 244.064 -9.08116 266.805 7.13911 287.95C13.8214 296.644 24.7301 303.25 35.1248 308.309C44.1487 312.705 55.1431 315.407 64.1671 309.562C73.7622 303.349 78.5597 290.971 84.0426 282.154C91.039 270.882 97.9783 259.585 105.118 248.386C112.085 237.458 119.282 226.652 126.849 216.018C134.617 205.163 142.384 193.228 152.065 183.502C154.178 181.39 156.748 179.622 159.233 177.78C160.975 176.479 163.059 174.416 165.173 173.482C168.342 172.083 167.2 171.984 170.427 174.072C179.337 179.843 185.191 186.351 191.502 194.259C207.779 214.741 222.143 236.279 235.822 258.111C243.875 270.956 251.757 283.874 259.81 296.742C265.35 305.559 272.032 314.081 285.197 312.828C297.848 311.625 311.126 302.857 320.065 295.514C330.659 286.845 335.857 275.303 334.857 262.753L334.886 262.802ZM96.8932 235.346C88.0691 247.797 78.5312 259.855 69.136 271.987C63.5388 279.183 59.2267 284.365 48.0039 281.246C21.4746 273.878 27.9856 246.176 39.3512 230.827C39.4654 230.63 39.6082 230.434 39.751 230.262C39.8938 230.09 40.008 229.918 40.1508 229.795C48.9463 219.137 59.5123 209.854 70.7066 201.013C79.1309 194.357 90.4108 186.719 102.719 188.733C130.59 193.326 103.661 225.719 96.8646 235.346H96.8932ZM167.714 145.387C162.431 145.387 158.119 141.703 158.119 137.136C158.119 132.568 162.403 128.884 167.714 128.884C173.026 128.884 177.309 132.568 177.309 137.136C177.309 141.703 173.026 145.387 167.714 145.387ZM305.044 263.171C302.645 271.496 295.477 279.232 285.568 281.491C274.06 284.144 270.29 277.955 264.664 270.735C255.555 259.045 246.36 247.379 237.85 235.346C231.082 225.768 203.81 192.54 232.624 188.684C245.417 186.965 256.554 195.094 265.236 201.995C276.144 210.689 286.425 219.8 294.992 230.262C302.302 239.84 308.385 251.481 305.015 263.171H305.044Z" fill="#EAA87A"/>
</g>
<defs>
<clipPath id="clip0_7_15">
<rect width="335" height="313" fill="white"/>
</clipPath>
</defs>
</svg>
