<svg width="600" height="392" viewBox="0 0 600 392" fill="none" xmlns="http://www.w3.org/2000/svg">
<path fill-rule="evenodd" clip-rule="evenodd" d="M0 178.44V356.666L17.5026 374.15L35.0048 391.634H65.7648H96.5243V312.568V233.502H111.525H126.525V295.084V356.666L144.028 374.15L161.53 391.634H192.29H223.049V213.19V34.7465L205.764 17.4797L188.479 0.213289H157.502H126.525V72.763V145.313H111.525H96.5243V90.0293V34.7465L79.239 17.4797L61.9542 0.213289H30.9769H0V178.44ZM376.966 178.422V356.666L394.499 374.18L412.032 391.694L463.305 391.511C507.215 391.353 515.328 391.226 519.796 390.629C543.143 387.505 559.204 380.522 572.345 367.782C586.911 353.662 595.482 333.641 598.68 306.269C599.777 296.869 600 281.168 600 213.084C600 144.999 599.777 129.298 598.68 119.899C596.929 104.918 592.875 89.8065 587.958 79.931C585.036 74.0641 578.394 62.7072 574.62 57.1252C565.42 43.5207 552.296 30.3344 539.2 21.5385C526.335 12.8978 510.58 5.86999 497.839 3.08921C485.27 0.34579 488.687 0.485676 430.337 0.324937L376.966 0.178101V178.422ZM284.355 37.1398V39.7463H291.095H297.834V47.5661V55.3858H291.095H284.355V57.9924V60.5989H300.008H315.66V57.9924V55.3858H309.138H302.617V47.5661V39.7463H309.138H315.66V37.1398V34.5332H300.008H284.355V37.1398ZM284.355 84.2488V87.0274L288.268 88.4259L292.182 89.8247L292.18 96.173L292.179 102.521L288.376 103.862L284.573 105.203L284.442 107.933C284.314 110.593 284.337 110.657 285.311 110.406C285.862 110.264 292.866 107.729 300.877 104.772L315.443 99.3952V96.2152V93.0352L302.834 88.3412C295.899 85.7593 288.904 83.1571 287.29 82.5585L284.355 81.4698V84.2488ZM502.598 86.1916C503.435 87.5461 503.542 100.787 503.38 183.325C503.227 261.511 503.145 269.718 502.481 273.469C501.245 280.443 500.066 284.36 497.793 289.039C496.075 292.576 495.028 294.105 492.867 296.233C488.913 300.126 483.005 303.057 476.208 304.5L473.491 305.077V195.187V85.2984L487.855 85.4383C499.642 85.5534 502.287 85.6885 502.598 86.1916ZM308.24 95.5418C309.061 95.8338 309.528 96.1987 309.278 96.3533C308.647 96.7426 297.819 100.566 297.347 100.566C297.136 100.566 296.964 98.5255 296.964 96.031V91.4955L301.856 93.2532C304.546 94.2198 307.419 95.2499 308.24 95.5418ZM284.355 134.669V137.493H300.008H315.66V134.669V131.845H300.008H284.355V134.669ZM284.355 163.993V166.6H290.008H295.66V171.552V176.504L290.008 179.616L284.355 182.728V185.959C284.355 187.736 284.445 189.19 284.554 189.19C284.664 189.19 287.354 187.646 290.533 185.759C296.271 182.353 296.317 182.336 296.953 183.261C298.73 185.849 300.696 187.343 302.969 187.829C308.926 189.104 313.994 186.048 315.194 180.458C315.451 179.264 315.66 174.484 315.66 169.837V161.387H300.008H284.355V163.993ZM310.853 172.139C310.826 178.251 310.365 180.212 308.66 181.475C307.017 182.691 303.726 182.616 302.357 181.33C300.851 179.917 300.448 177.933 300.445 171.921L300.443 166.6H305.66H310.878L310.853 172.139ZM284.425 247.078C284.566 255.473 284.624 255.984 285.696 258.267C288.094 263.374 291.965 265.667 298.742 265.993C308.012 266.439 313.506 262.721 315.172 254.876C315.44 253.61 315.66 249.358 315.66 245.427V238.28H299.969H284.278L284.425 247.078ZM310.796 248.815C310.655 252.752 310.439 254.051 309.682 255.494C307.815 259.053 305.119 260.429 300.005 260.434C294.875 260.439 291.978 258.967 290.218 255.464C289.267 253.572 289.138 252.753 289.138 248.622V243.928H300.055H310.972L310.796 248.815ZM284.357 287.433L284.358 290.195L288.161 291.538L291.964 292.88V299.308V305.736L288.16 307.053L284.355 308.37V311.167C284.355 313.223 284.499 313.911 284.899 313.763C285.198 313.651 292.242 311.061 300.551 308.005L315.66 302.45V299.34V296.23L300.551 290.644C292.242 287.572 285.198 284.972 284.899 284.865C284.5 284.723 284.356 285.41 284.357 287.433ZM303.52 296.978C306.969 298.2 309.835 299.239 309.891 299.286C309.945 299.334 307.304 300.316 304.021 301.47C300.737 302.623 297.807 303.659 297.508 303.77C297.094 303.924 296.964 302.869 296.964 299.364C296.964 296.83 297.029 294.756 297.107 294.756C297.185 294.756 300.071 295.756 303.52 296.978ZM305.027 333.232L295.045 339.502H289.7H284.355V342.109V344.716H289.911H295.467L305.02 350.63C310.275 353.883 314.818 356.64 315.117 356.758C315.521 356.917 315.66 356.184 315.66 353.906V350.839L308.27 346.416L300.879 341.993L308.161 337.565L315.443 333.138L315.571 330.021C315.641 328.306 315.543 326.917 315.353 326.933C315.163 326.948 310.516 329.783 305.027 333.232Z" fill="#EAA87A"/>
<path fill-rule="evenodd" clip-rule="evenodd" d="M0 178.44V356.666L17.5026 374.15L35.0048 391.634H65.7648H96.5243V312.568V233.502H111.525H126.525V295.084V356.666L144.028 374.15L161.53 391.634H192.29H223.049V213.19V34.7465L205.764 17.4797L188.479 0.213289H157.502H126.525V72.763V145.313H111.525H96.5243V90.0293V34.7465L79.239 17.4797L61.9542 0.213289H30.9769H0V178.44ZM376.966 178.422V356.666L394.499 374.18L412.032 391.694L463.305 391.511C518.245 391.314 517.747 391.332 529.761 389.015C560.734 383.04 582.164 364.721 592.252 335.595C596.544 323.202 598.738 310.562 599.568 293.453C600.138 281.706 600.138 144.461 599.568 132.714C598.89 118.744 597.655 110.02 594.786 98.9369C592.349 89.5245 589.491 82.4251 584.686 73.849C574.785 56.1795 569.05 48.2811 558.31 37.5242C551.454 30.6577 545.415 25.6565 538.354 20.9999C532.044 16.8376 525.32 13.1397 524.728 13.5055C524.395 13.711 524.346 13.6219 524.583 13.2396C524.844 12.8183 524.739 12.7405 524.193 12.9503C523.782 13.108 523.557 13.0576 523.693 12.8382C523.828 12.6188 523.496 12.3087 522.955 12.1484C522.413 11.9876 520.014 10.9137 517.622 9.76161C509.848 6.01509 500.326 3.24865 488.274 1.23507C484.13 0.542586 478.782 0.458307 430.337 0.324937L376.966 0.178101V178.422ZM284.355 37.1398V39.7463H291.095H297.834V47.5661V55.3858H291.095H284.355V57.9924V60.5989H300.008H315.66V57.9924V55.3858H309.138H302.617V47.5661V39.7463H309.138H315.66V37.1398V34.5332H300.008H284.355V37.1398ZM284.355 84.2488V87.0274L288.268 88.4259L292.182 89.8247L292.18 96.173L292.179 102.521L288.376 103.862L284.573 105.203L284.442 107.933C284.314 110.593 284.337 110.657 285.311 110.406C285.862 110.264 292.866 107.729 300.877 104.772L315.443 99.3952V96.2152V93.0352L302.834 88.3412C295.899 85.7593 288.904 83.1571 287.29 82.5585L284.355 81.4698V84.2488ZM502.598 86.1916C503.435 87.5461 503.542 100.787 503.38 183.325C503.227 261.511 503.145 269.718 502.481 273.469C501.245 280.443 500.066 284.36 497.793 289.039C496.075 292.576 495.028 294.105 492.867 296.233C488.913 300.126 483.005 303.057 476.208 304.5L473.491 305.077V195.187V85.2984L487.855 85.4383C499.642 85.5534 502.287 85.6885 502.598 86.1916ZM308.24 95.5418C309.061 95.8338 309.528 96.1987 309.278 96.3533C308.647 96.7426 297.819 100.566 297.347 100.566C297.136 100.566 296.964 98.5255 296.964 96.031V91.4955L301.856 93.2532C304.546 94.2198 307.419 95.2499 308.24 95.5418ZM284.355 134.669V137.493H300.008H315.66V134.669V131.845H300.008H284.355V134.669ZM284.355 163.993V166.6H290.008H295.66V171.552V176.504L290.008 179.616L284.355 182.728V185.959C284.355 187.736 284.445 189.19 284.554 189.19C284.664 189.19 287.354 187.646 290.533 185.759C296.271 182.353 296.317 182.336 296.953 183.261C298.73 185.849 300.696 187.343 302.969 187.829C308.926 189.104 313.994 186.048 315.194 180.458C315.451 179.264 315.66 174.484 315.66 169.837V161.387H300.008H284.355V163.993ZM310.853 172.139C310.826 178.251 310.365 180.212 308.66 181.475C307.017 182.691 303.726 182.616 302.357 181.33C300.851 179.917 300.448 177.933 300.445 171.921L300.443 166.6H305.66H310.878L310.853 172.139ZM284.425 247.078C284.566 255.473 284.624 255.984 285.696 258.267C288.094 263.374 291.965 265.667 298.742 265.993C308.012 266.439 313.506 262.721 315.172 254.876C315.44 253.61 315.66 249.358 315.66 245.427V238.28H299.969H284.278L284.425 247.078ZM310.796 248.815C310.655 252.752 310.439 254.051 309.682 255.494C307.815 259.053 305.119 260.429 300.005 260.434C294.875 260.439 291.978 258.967 290.218 255.464C289.267 253.572 289.138 252.753 289.138 248.622V243.928H300.055H310.972L310.796 248.815ZM284.357 287.433L284.358 290.195L288.161 291.538L291.964 292.88V299.308V305.736L288.16 307.053L284.355 308.37V311.167C284.355 313.223 284.499 313.911 284.899 313.763C285.198 313.651 292.242 311.061 300.551 308.005L315.66 302.45V299.34V296.23L300.551 290.644C292.242 287.572 285.198 284.972 284.899 284.865C284.5 284.723 284.356 285.41 284.357 287.433ZM303.52 296.978C306.969 298.2 309.835 299.239 309.891 299.286C309.945 299.334 307.304 300.316 304.021 301.47C300.737 302.623 297.807 303.659 297.508 303.77C297.094 303.924 296.964 302.869 296.964 299.364C296.964 296.83 297.029 294.756 297.107 294.756C297.185 294.756 300.071 295.756 303.52 296.978ZM305.027 333.232L295.045 339.502H289.7H284.355V342.109V344.716H289.911H295.467L305.02 350.63C310.275 353.883 314.818 356.64 315.117 356.758C315.521 356.917 315.66 356.184 315.66 353.906V350.839L308.27 346.416L300.879 341.993L308.161 337.565L315.443 333.138L315.571 330.021C315.641 328.306 315.543 326.917 315.353 326.933C315.163 326.948 310.516 329.783 305.027 333.232Z" fill="#EAA87A"/>
<path fill-rule="evenodd" clip-rule="evenodd" d="M0 178.44V356.666L17.5026 374.15L35.0048 391.634H65.7648H96.5243V312.568V233.502H111.525H126.525V295.084V356.666L144.028 374.15L161.53 391.634H192.29H223.049V213.19V34.7465L205.764 17.4797L188.479 0.213289H157.502H126.525V72.763V145.313H111.525H96.5243V90.0293V34.7465L79.239 17.4797L61.9542 0.213289H30.9769H0V178.44ZM376.966 178.422V356.666L394.499 374.18L412.032 391.694L463.305 391.511C518.245 391.314 517.747 391.332 529.761 389.015C560.734 383.04 582.164 364.721 592.252 335.595C596.544 323.202 598.738 310.562 599.568 293.453C600.138 281.706 600.138 144.461 599.568 132.714C598.89 118.744 597.655 110.02 594.786 98.9369C592.349 89.5245 589.491 82.4251 584.686 73.849C574.785 56.1795 569.05 48.2811 558.31 37.5242C551.454 30.6577 545.415 25.6565 538.354 20.9999C532.044 16.8376 525.32 13.1397 524.728 13.5055C524.395 13.711 524.346 13.6219 524.583 13.2396C524.844 12.8183 524.739 12.7405 524.193 12.9503C523.782 13.108 523.557 13.0576 523.693 12.8382C523.828 12.6188 523.496 12.3087 522.955 12.1484C522.413 11.9876 520.014 10.9137 517.622 9.76161C509.848 6.01509 500.326 3.24865 488.274 1.23507C484.13 0.542586 478.782 0.458307 430.337 0.324937L376.966 0.178101V178.422ZM284.355 37.1398V39.7463H291.095H297.834V47.5661V55.3858H291.095H284.355V57.9924V60.5989H300.008H315.66V57.9924V55.3858H309.138H302.617V47.5661V39.7463H309.138H315.66V37.1398V34.5332H300.008H284.355V37.1398ZM458.191 50.932C454.678 51.0046 448.809 51.005 445.147 50.932C441.485 50.8595 444.359 50.8 451.534 50.7995C458.708 50.7995 461.703 50.859 458.191 50.932ZM493.274 60.5989C493.706 61.0768 493.963 61.4678 493.843 61.4678C493.724 61.4678 493.272 61.0768 492.839 60.5989C492.406 60.1211 492.15 59.7301 492.269 59.7301C492.389 59.7301 492.841 60.1211 493.274 60.5989ZM284.355 84.2488V87.0274L288.268 88.4259L292.182 89.8247L292.18 96.173L292.179 102.521L288.376 103.862L284.573 105.203L284.442 107.933C284.314 110.593 284.337 110.657 285.311 110.406C285.862 110.264 292.866 107.729 300.877 104.772L315.443 99.3952V96.2152V93.0352L302.834 88.3412C295.899 85.7593 288.904 83.1571 287.29 82.5585L284.355 81.4698V84.2488ZM502.598 86.1916C503.435 87.5461 503.542 100.787 503.38 183.325C503.227 261.511 503.145 269.718 502.481 273.469C501.245 280.443 500.066 284.36 497.793 289.039C496.075 292.576 495.028 294.105 492.867 296.233C488.913 300.126 483.005 303.057 476.208 304.5L473.491 305.077V195.187V85.2984L487.855 85.4383C499.642 85.5534 502.287 85.6885 502.598 86.1916ZM564.225 86.7464C564.086 87.0926 563.983 86.9896 563.962 86.4835C563.943 86.0256 564.046 85.7693 564.19 85.9136C564.335 86.0578 564.35 86.4327 564.225 86.7464ZM564.66 91.5251C564.521 91.8713 564.418 91.7684 564.397 91.2623C564.378 90.8044 564.481 90.5481 564.625 90.6923C564.77 90.8365 564.785 91.2114 564.66 91.5251ZM308.24 95.5418C309.061 95.8338 309.528 96.1987 309.278 96.3533C308.647 96.7426 297.819 100.566 297.347 100.566C297.136 100.566 296.964 98.5255 296.964 96.031V91.4955L301.856 93.2532C304.546 94.2198 307.419 95.2499 308.24 95.5418ZM565.097 99.589C564.988 100.007 564.898 99.665 564.898 98.8287C564.898 97.9924 564.988 97.6501 565.097 98.0685C565.206 98.4868 565.206 99.1706 565.097 99.589ZM284.355 134.669V137.493H300.008H315.66V134.669V131.845H300.008H284.355V134.669ZM284.355 163.993V166.6H290.008H295.66V171.552V176.504L290.008 179.616L284.355 182.728V185.959C284.355 187.736 284.445 189.19 284.554 189.19C284.664 189.19 287.354 187.646 290.533 185.759C296.271 182.353 296.317 182.336 296.953 183.261C298.73 185.849 300.696 187.343 302.969 187.829C308.926 189.104 313.994 186.048 315.194 180.458C315.451 179.264 315.66 174.484 315.66 169.837V161.387H300.008H284.355V163.993ZM310.853 172.139C310.826 178.251 310.365 180.212 308.66 181.475C307.017 182.691 303.726 182.616 302.357 181.33C300.851 179.917 300.448 177.933 300.445 171.921L300.443 166.6H305.66H310.878L310.853 172.139ZM284.425 247.078C284.566 255.473 284.624 255.984 285.696 258.267C288.094 263.374 291.965 265.667 298.742 265.993C308.012 266.439 313.506 262.721 315.172 254.876C315.44 253.61 315.66 249.358 315.66 245.427V238.28H299.969H284.278L284.425 247.078ZM310.796 248.815C310.655 252.752 310.439 254.051 309.682 255.494C307.815 259.053 305.119 260.429 300.005 260.434C294.875 260.439 291.978 258.967 290.218 255.464C289.267 253.572 289.138 252.753 289.138 248.622V243.928H300.055H310.972L310.796 248.815ZM565.097 259.024C564.988 259.442 564.898 259.1 564.898 258.264C564.898 257.428 564.988 257.086 565.097 257.504C565.206 257.922 565.206 258.607 565.097 259.024ZM564.66 266.166C564.521 266.512 564.418 266.409 564.397 265.903C564.378 265.445 564.481 265.189 564.625 265.333C564.77 265.477 564.785 265.852 564.66 266.166ZM284.357 287.433L284.358 290.195L288.161 291.538L291.964 292.88V299.308V305.736L288.16 307.053L284.355 308.37V311.167C284.355 313.223 284.499 313.911 284.899 313.763C285.198 313.651 292.242 311.061 300.551 308.005L315.66 302.45V299.34V296.23L300.551 290.644C292.242 287.572 285.198 284.972 284.899 284.865C284.5 284.723 284.356 285.41 284.357 287.433ZM303.52 296.978C306.969 298.2 309.835 299.239 309.891 299.286C309.945 299.334 307.304 300.316 304.021 301.47C300.737 302.623 297.807 303.659 297.508 303.77C297.094 303.924 296.964 302.869 296.964 299.364C296.964 296.83 297.029 294.756 297.107 294.756C297.185 294.756 300.071 295.756 303.52 296.978ZM305.027 333.232L295.045 339.502H289.7H284.355V342.109V344.716H289.911H295.467L305.02 350.63C310.275 353.883 314.818 356.64 315.117 356.758C315.521 356.917 315.66 356.184 315.66 353.906V350.839L308.27 346.416L300.879 341.993L308.161 337.565L315.443 333.138L315.571 330.021C315.641 328.306 315.543 326.917 315.353 326.933C315.163 326.948 310.516 329.783 305.027 333.232ZM541.753 329.24C541.753 329.33 541.411 329.673 540.992 330.001C540.303 330.541 540.288 330.525 540.828 329.836C541.396 329.113 541.753 328.883 541.753 329.24ZM536.536 334.454C536.536 334.543 536.194 334.886 535.775 335.214C535.085 335.754 535.07 335.739 535.61 335.05C536.179 334.326 536.536 334.096 536.536 334.454ZM482.938 356.273C482.794 356.417 482.419 356.433 482.105 356.307C481.758 356.169 481.861 356.066 482.368 356.045C482.826 356.026 483.083 356.129 482.938 356.273ZM476.651 356.73C476.357 356.849 475.77 356.857 475.347 356.746C474.924 356.636 475.165 356.539 475.882 356.53C476.599 356.521 476.946 356.611 476.651 356.73Z" fill="#EAA87A"/>
<path fill-rule="evenodd" clip-rule="evenodd" d="M0 178.44V356.666L17.5026 374.15L35.0048 391.634H65.7648H96.5243V312.568V233.502H111.525H126.525V295.084V356.666L144.028 374.15L161.53 391.634H192.29H223.049V213.19V34.7465L205.764 17.4797L188.479 0.213289H157.502H126.525V72.763V145.313H111.525H96.5243V90.0293V34.7465L79.239 17.4797L61.9542 0.213289H30.9769H0V178.44ZM376.966 178.422V356.666L394.499 374.18L412.032 391.694L463.305 391.511C518.245 391.314 517.747 391.332 529.761 389.015C560.734 383.04 582.164 364.721 592.252 335.595C596.544 323.202 598.738 310.562 599.568 293.453C600.138 281.706 600.138 144.461 599.568 132.714C598.89 118.744 597.655 110.02 594.786 98.9369C592.349 89.5245 589.491 82.4251 584.686 73.849C574.785 56.1795 569.05 48.2811 558.31 37.5242C551.343 30.5456 545.363 25.6126 538.058 20.8161C532.581 17.2203 523.732 12.2496 522.668 12.1714C522.272 12.1423 520.877 11.5111 519.568 10.7686C512.693 6.87092 502.165 3.61834 489.361 1.43708C483.771 0.484807 483.112 0.472643 430.337 0.326241L376.966 0.178101V178.422ZM535.014 21.0659C535.447 21.5438 535.703 21.9347 535.584 21.9347C535.464 21.9347 535.012 21.5438 534.579 21.0659C534.147 20.588 533.89 20.197 534.01 20.197C534.129 20.197 534.581 20.588 535.014 21.0659ZM541.971 28.0168C542.403 28.4946 542.66 28.8856 542.54 28.8856C542.421 28.8856 541.968 28.4946 541.536 28.0168C541.103 27.5389 540.847 27.1479 540.966 27.1479C541.086 27.1479 541.538 27.5389 541.971 28.0168ZM284.355 37.1398V39.7463H291.095H297.834V47.5661V55.3858H291.095H284.355V57.9924V60.5989H300.008H315.66V57.9924V55.3858H309.138H302.617V47.5661V39.7463H309.138H315.66V37.1398V34.5332H300.008H284.355V37.1398ZM458.191 50.932C454.678 51.0046 448.809 51.005 445.147 50.932C441.485 50.8595 444.359 50.8 451.534 50.7995C458.708 50.7995 461.703 50.859 458.191 50.932ZM469.894 51.3039C469.75 51.4481 469.375 51.4638 469.061 51.3382C468.714 51.1996 468.817 51.0967 469.324 51.0758C469.782 51.0571 470.039 51.1597 469.894 51.3039ZM493.301 60.7075L494.578 62.1194L493.165 60.8435C491.848 59.6541 491.552 59.2957 491.888 59.2957C491.963 59.2957 492.599 59.9312 493.301 60.7075ZM284.355 84.2488V87.0274L288.268 88.4259L292.182 89.8247L292.18 96.173L292.179 102.521L288.376 103.862L284.573 105.203L284.442 107.933C284.314 110.593 284.337 110.657 285.311 110.406C285.862 110.264 292.866 107.729 300.877 104.772L315.443 99.3952V96.2152V93.0352L302.834 88.3412C295.899 85.7593 288.904 83.1571 287.29 82.5585L284.355 81.4698V84.2488ZM502.598 86.1916C503.435 87.5461 503.542 100.787 503.38 183.325C503.227 261.511 503.145 269.718 502.481 273.469C501.245 280.443 500.066 284.36 497.793 289.039C496.075 292.576 495.028 294.105 492.867 296.233C488.913 300.126 483.005 303.057 476.208 304.5L473.491 305.077V195.187V85.2984L487.855 85.4383C499.642 85.5534 502.287 85.6885 502.598 86.1916ZM564.225 86.7464C564.086 87.0926 563.983 86.9896 563.962 86.4835C563.943 86.0256 564.046 85.7693 564.19 85.9136C564.335 86.0578 564.35 86.4327 564.225 86.7464ZM564.65 91.9864C564.53 92.2853 564.431 92.0408 564.431 91.4434C564.431 90.8461 564.53 90.6019 564.65 90.9004C564.771 91.1993 564.771 91.688 564.65 91.9864ZM308.24 95.5418C309.061 95.8338 309.528 96.1987 309.278 96.3533C308.647 96.7426 297.819 100.566 297.347 100.566C297.136 100.566 296.964 98.5255 296.964 96.031V91.4955L301.856 93.2532C304.546 94.2198 307.419 95.2499 308.24 95.5418ZM565.105 99.801C565.001 100.341 564.912 100.002 564.907 99.0459C564.902 98.0902 564.987 97.6479 565.096 98.0632C565.205 98.4786 565.209 99.2605 565.105 99.801ZM284.355 134.669V137.493H300.008H315.66V134.669V131.845H300.008H284.355V134.669ZM284.355 163.993V166.6H290.008H295.66V171.552V176.504L290.008 179.616L284.355 182.728V185.959C284.355 187.736 284.445 189.19 284.554 189.19C284.664 189.19 287.354 187.646 290.533 185.759C296.271 182.353 296.317 182.336 296.953 183.261C298.73 185.849 300.696 187.343 302.969 187.829C308.926 189.104 313.994 186.048 315.194 180.458C315.451 179.264 315.66 174.484 315.66 169.837V161.387H300.008H284.355V163.993ZM310.853 172.139C310.826 178.251 310.365 180.212 308.66 181.475C307.017 182.691 303.726 182.616 302.357 181.33C300.851 179.917 300.448 177.933 300.445 171.921L300.443 166.6H305.66H310.878L310.853 172.139ZM284.425 247.078C284.566 255.473 284.624 255.984 285.696 258.267C288.094 263.374 291.965 265.667 298.742 265.993C308.012 266.439 313.506 262.721 315.172 254.876C315.44 253.61 315.66 249.358 315.66 245.427V238.28H299.969H284.278L284.425 247.078ZM310.796 248.815C310.655 252.752 310.439 254.051 309.682 255.494C307.815 259.053 305.119 260.429 300.005 260.434C294.875 260.439 291.978 258.967 290.218 255.464C289.267 253.572 289.138 252.753 289.138 248.622V243.928H300.055H310.972L310.796 248.815ZM565.105 258.802C565.001 259.342 564.912 259.003 564.907 258.047C564.902 257.091 564.987 256.649 565.096 257.064C565.205 257.48 565.209 258.262 565.105 258.802ZM564.65 266.193C564.53 266.491 564.431 266.247 564.431 265.65C564.431 265.052 564.53 264.808 564.65 265.106C564.771 265.405 564.771 265.894 564.65 266.193ZM563.79 274.42C563.651 274.766 563.548 274.663 563.527 274.157C563.509 273.699 563.611 273.443 563.756 273.587C563.9 273.731 563.916 274.106 563.79 274.42ZM284.357 287.433L284.358 290.195L288.161 291.538L291.964 292.88V299.308V305.736L288.16 307.053L284.355 308.37V311.167C284.355 313.223 284.499 313.911 284.899 313.763C285.198 313.651 292.242 311.061 300.551 308.005L315.66 302.45V299.34V296.23L300.551 290.644C292.242 287.572 285.198 284.972 284.899 284.865C284.5 284.723 284.356 285.41 284.357 287.433ZM303.52 296.978C306.969 298.2 309.835 299.239 309.891 299.286C309.945 299.334 307.304 300.316 304.021 301.47C300.737 302.623 297.807 303.659 297.508 303.77C297.094 303.924 296.964 302.869 296.964 299.364C296.964 296.83 297.029 294.756 297.107 294.756C297.185 294.756 300.071 295.756 303.52 296.978ZM468.59 305.879C468.446 306.024 468.07 306.039 467.757 305.914C467.41 305.775 467.513 305.672 468.02 305.651C468.478 305.633 468.734 305.735 468.59 305.879ZM305.027 333.232L295.045 339.502H289.7H284.355V342.109V344.716H289.911H295.467L305.02 350.63C310.275 353.883 314.818 356.64 315.117 356.758C315.521 356.917 315.66 356.184 315.66 353.906V350.839L308.27 346.416L300.879 341.993L308.161 337.565L315.443 333.138L315.571 330.021C315.641 328.306 315.543 326.917 315.353 326.933C315.163 326.948 310.516 329.783 305.027 333.232ZM538.71 332.334C536.928 334.126 535.373 335.593 535.253 335.593C535.134 335.593 536.494 334.126 538.275 332.334C540.056 330.542 541.612 329.076 541.731 329.076C541.851 329.076 540.491 330.542 538.71 332.334ZM486.851 355.839C486.707 355.983 486.332 355.999 486.018 355.873C485.671 355.734 485.774 355.632 486.281 355.611C486.739 355.592 486.996 355.695 486.851 355.839ZM482.938 356.273C482.794 356.417 482.419 356.433 482.105 356.307C481.758 356.169 481.861 356.066 482.368 356.045C482.826 356.026 483.083 356.129 482.938 356.273ZM476.651 356.73C476.357 356.849 475.77 356.857 475.347 356.746C474.924 356.636 475.165 356.539 475.882 356.53C476.599 356.521 476.946 356.611 476.651 356.73Z" fill="#EAA87A"/>
<path fill-rule="evenodd" clip-rule="evenodd" d="M0 178.425V356.638L17.4931 374.136L34.9866 391.634H65.7552H96.5243V312.568V233.502H111.52H126.515L126.629 216.233C126.691 206.736 126.665 234.412 126.57 277.737L126.397 356.51L143.954 374.072L161.512 391.634H192.28H223.049V213.19V34.7465L205.764 17.4797L188.479 0.21329H157.502H126.525V72.763V145.313H111.525H96.5243V90.0293V34.7465L79.239 17.4797L61.9542 0.21329H30.9769H0V178.425ZM376.966 178.415V356.638L394.467 374.158L411.967 391.678L463.273 391.503C518.26 391.315 517.738 391.334 529.761 389.015C560.734 383.04 582.164 364.721 592.252 335.595C596.544 323.202 598.738 310.562 599.568 293.453C600.138 281.706 600.138 144.461 599.568 132.714C598.89 118.744 597.655 110.02 594.786 98.9369C592.349 89.5245 589.491 82.4251 584.686 73.849C574.785 56.1795 569.05 48.2811 558.31 37.5242C551.343 30.5456 545.363 25.6126 538.058 20.8161C532.199 16.9692 523.782 12.2896 522.461 12.1449C521.925 12.0858 520.518 11.4442 519.336 10.7191C513.296 7.01211 499.483 2.82334 488.926 1.49703C486.774 1.22681 484.23 0.896647 483.273 0.764146C482.317 0.63121 458.007 0.448316 429.25 0.35752L376.966 0.192871V178.415ZM525.231 13.9282C525.231 14.0477 524.84 13.9365 524.362 13.6806C523.883 13.4247 523.492 13.118 523.492 12.9985C523.492 12.8791 523.883 12.9903 524.362 13.2462C524.84 13.502 525.231 13.8088 525.231 13.9282ZM529.2 16.613C529.74 17.302 529.725 17.3172 529.036 16.7772C528.311 16.2094 528.081 15.8527 528.439 15.8527C528.529 15.8527 528.872 16.1951 529.2 16.613ZM532.678 19.2196C533.219 19.9086 533.203 19.9238 532.514 19.3838C532.095 19.0558 531.753 18.7135 531.753 18.6235C531.753 18.266 532.11 18.4958 532.678 19.2196ZM535.884 21.9347C536.817 22.8905 537.484 23.6725 537.364 23.6725C537.245 23.6725 536.383 22.8905 535.449 21.9347C534.515 20.979 533.848 20.197 533.968 20.197C534.087 20.197 534.95 20.979 535.884 21.9347ZM541.101 27.1479C542.035 28.1036 542.702 28.8856 542.582 28.8856C542.462 28.8856 541.6 28.1036 540.666 27.1479C539.732 26.1922 539.066 25.4102 539.185 25.4102C539.305 25.4102 540.167 26.1922 541.101 27.1479ZM543.983 30.5147C544.523 31.2037 544.508 31.2189 543.819 30.6789C543.4 30.3509 543.058 30.0086 543.058 29.9187C543.058 29.5612 543.415 29.791 543.983 30.5147ZM284.355 37.1398V39.7463H291.095H297.834V47.5661V55.3858H291.095H284.355V57.9924V60.5989H300.008H315.66V57.9924V55.3858H309.138H302.617V47.5661V39.7463H309.138H315.66V37.1398V34.5332H300.008H284.355V37.1398ZM459.686 50.932C455.8 51.0041 449.441 51.0041 445.555 50.932C441.669 50.8599 444.849 50.8013 452.621 50.8013C460.392 50.8013 463.572 50.8599 459.686 50.932ZM470.564 51.3265C470.27 51.4455 469.683 51.4529 469.26 51.3426C468.837 51.2322 469.077 51.1349 469.795 51.1262C470.512 51.1175 470.858 51.2075 470.564 51.3265ZM473.599 51.7635C473.301 51.8843 472.811 51.8843 472.512 51.7635C472.214 51.6432 472.458 51.5446 473.056 51.5446C473.654 51.5446 473.898 51.6432 473.599 51.7635ZM475.982 52.1728C475.837 52.317 475.462 52.3326 475.148 52.2071C474.802 52.0685 474.905 51.9655 475.411 51.9447C475.869 51.926 476.126 52.0285 475.982 52.1728ZM486.343 55.6269C487.138 56.2642 487.124 56.2729 486.1 55.7855C484.769 55.1521 484.522 54.9514 485.074 54.9514C485.308 54.9514 485.878 55.2555 486.343 55.6269ZM494.796 62.2098C494.796 62.5361 494.405 62.1911 492.603 60.2731L490.665 58.2096L492.73 60.1463C493.866 61.2115 494.796 62.1403 494.796 62.2098ZM560.312 65.0249C560.173 65.3711 560.07 65.2682 560.049 64.7621C560.03 64.3042 560.133 64.0479 560.277 64.1921C560.422 64.3363 560.437 64.7113 560.312 65.0249ZM560.746 66.7626C560.608 67.1089 560.505 67.0059 560.484 66.4998C560.465 66.0419 560.568 65.7856 560.712 65.9298C560.856 66.0741 560.872 66.449 560.746 66.7626ZM561.181 68.5003C561.042 68.8466 560.939 68.7436 560.919 68.2375C560.9 67.7796 561.002 67.5233 561.147 67.6675C561.291 67.8118 561.307 68.1867 561.181 68.5003ZM562.486 75.0168C562.347 75.363 562.244 75.2601 562.223 74.7539C562.204 74.2961 562.307 74.0397 562.451 74.184C562.596 74.3282 562.611 74.7031 562.486 75.0168ZM562.911 77.6503C562.791 77.9492 562.692 77.7046 562.692 77.1073C562.692 76.5099 562.791 76.2658 562.911 76.5642C563.032 76.8631 563.032 77.3518 562.911 77.6503ZM502.049 80.2299C501.91 80.5762 501.807 80.4732 501.787 79.9671C501.768 79.5092 501.87 79.2529 502.015 79.3971C502.159 79.5414 502.175 79.9163 502.049 80.2299ZM563.346 80.6913C563.226 80.9902 563.127 80.7456 563.127 80.1483C563.127 79.5509 563.226 79.3068 563.346 79.6052C563.467 79.9041 563.467 80.3928 563.346 80.6913ZM284.355 84.2488V87.0274L288.268 88.4259L292.182 89.8247L292.18 96.173L292.179 102.521L288.376 103.862L284.573 105.203L284.442 107.933C284.314 110.593 284.337 110.657 285.311 110.406C285.862 110.264 292.866 107.729 300.877 104.772L315.443 99.3952V96.2152V93.0352L302.834 88.3412C295.899 85.7593 288.904 83.1571 287.29 82.5585L284.355 81.4698V84.2488ZM502.484 82.8365C502.345 83.1827 502.242 83.0798 502.221 82.5737C502.203 82.1158 502.305 81.8595 502.45 82.0037C502.594 82.1479 502.61 82.5228 502.484 82.8365ZM563.781 83.7323C563.66 84.0312 563.562 83.7866 563.562 83.1893C563.562 82.5919 563.66 82.3478 563.781 82.6462C563.902 82.9451 563.902 83.4338 563.781 83.7323ZM503.081 88.2938C503.187 90.1453 503.274 131.346 503.274 179.85C503.274 262.024 503.222 268.369 502.506 272.871C501.354 280.12 500.202 284.073 497.791 289.039C496.074 292.578 495.029 294.104 492.867 296.233C488.913 300.126 483.005 303.057 476.208 304.5L473.491 305.077V195.183V85.2902L488.057 85.4344C496.068 85.5139 502.622 85.4318 502.622 85.2528C502.622 85.0738 502.681 84.927 502.754 84.927C502.827 84.927 502.974 86.4423 503.081 88.2938ZM564.227 87.8594C564.118 88.2777 564.029 87.9354 564.029 87.0991C564.029 86.2628 564.118 85.9205 564.227 86.3389C564.337 86.7572 564.337 87.441 564.227 87.8594ZM564.67 92.8501C564.566 93.3905 564.477 93.0508 564.472 92.0951C564.467 91.1393 564.553 90.6971 564.661 91.1124C564.77 91.5277 564.774 92.3097 564.67 92.8501ZM308.24 95.5418C309.061 95.8338 309.528 96.1987 309.278 96.3533C308.647 96.7426 297.819 100.566 297.347 100.566C297.136 100.566 296.964 98.5255 296.964 96.031V91.4955L301.856 93.2532C304.546 94.2199 307.419 95.2499 308.24 95.5418ZM565.117 103.499C565.027 104.634 564.954 103.705 564.954 101.435C564.954 99.1654 565.027 98.2366 565.117 99.3717C565.206 100.507 565.206 102.364 565.117 103.499ZM284.355 134.669V137.493H300.008H315.66V134.669V131.845H300.008H284.355V134.669ZM284.355 163.993V166.6H290.008H295.66V171.552V176.504L290.008 179.616L284.355 182.728V185.959C284.355 187.736 284.445 189.19 284.554 189.19C284.664 189.19 287.354 187.646 290.533 185.759C296.271 182.353 296.317 182.336 296.953 183.261C298.73 185.849 300.696 187.343 302.969 187.829C308.926 189.104 313.994 186.048 315.194 180.458C315.451 179.264 315.66 174.484 315.66 169.837V161.387H300.008H284.355V163.993ZM310.853 172.139C310.826 178.251 310.365 180.212 308.66 181.475C307.017 182.691 303.726 182.616 302.357 181.33C300.851 179.917 300.448 177.933 300.445 171.921L300.443 166.6H305.66H310.878L310.853 172.139ZM284.425 247.078C284.566 255.473 284.624 255.984 285.696 258.267C288.094 263.374 291.965 265.667 298.742 265.993C308.012 266.439 313.506 262.721 315.172 254.876C315.44 253.61 315.66 249.358 315.66 245.427V238.28H299.969H284.278L284.425 247.078ZM310.796 248.815C310.655 252.752 310.439 254.051 309.682 255.494C307.815 259.053 305.119 260.429 300.005 260.434C294.875 260.439 291.978 258.967 290.218 255.464C289.267 253.572 289.138 252.753 289.138 248.622V243.928H300.055H310.972L310.796 248.815ZM565.118 257.489C565.03 258.752 564.957 257.83 564.956 255.44C564.955 253.051 565.027 252.018 565.116 253.145C565.206 254.272 565.206 256.227 565.118 257.489ZM564.67 265.758C564.566 266.296 564.481 265.856 564.481 264.781C564.481 263.705 564.566 263.266 564.67 263.803C564.773 264.341 564.773 265.221 564.67 265.758ZM564.229 270.311C564.119 270.734 564.021 270.493 564.013 269.777C564.004 269.06 564.094 268.714 564.213 269.008C564.332 269.302 564.339 269.889 564.229 270.311ZM563.794 274.221C563.684 274.644 563.586 274.403 563.578 273.686C563.569 272.97 563.659 272.624 563.778 272.918C563.897 273.212 563.905 273.799 563.794 274.221ZM563.346 277.488C563.226 277.787 563.127 277.542 563.127 276.945C563.127 276.347 563.226 276.103 563.346 276.402C563.467 276.701 563.467 277.189 563.346 277.488ZM562.92 280.067C562.782 280.414 562.679 280.311 562.658 279.805C562.639 279.347 562.742 279.09 562.886 279.235C563.03 279.379 563.046 279.754 562.92 280.067ZM562.486 282.674C562.347 283.02 562.244 282.917 562.223 282.411C562.204 281.953 562.307 281.697 562.451 281.841C562.596 281.985 562.611 282.36 562.486 282.674ZM562.051 284.846C561.912 285.192 561.809 285.089 561.788 284.583C561.769 284.125 561.872 283.869 562.016 284.013C562.161 284.157 562.176 284.532 562.051 284.846ZM284.357 287.433L284.358 290.195L288.161 291.538L291.964 292.88V299.308V305.736L288.16 307.053L284.355 308.37V311.167C284.355 313.223 284.499 313.911 284.899 313.763C285.198 313.651 292.242 311.061 300.551 308.005L315.66 302.45V299.34V296.23L300.551 290.644C292.242 287.572 285.198 284.972 284.899 284.865C284.5 284.723 284.356 285.41 284.357 287.433ZM561.616 287.018C561.477 287.364 561.374 287.261 561.353 286.755C561.335 286.297 561.437 286.041 561.582 286.185C561.726 286.33 561.742 286.705 561.616 287.018ZM303.52 296.978C306.969 298.2 309.835 299.239 309.891 299.286C309.945 299.334 307.304 300.316 304.021 301.47C300.737 302.623 297.807 303.659 297.508 303.77C297.094 303.924 296.964 302.869 296.964 299.364C296.964 296.83 297.029 294.756 297.107 294.756C297.185 294.756 300.071 295.756 303.52 296.978ZM472.73 305.47C472.431 305.591 471.942 305.591 471.643 305.47C471.344 305.35 471.588 305.251 472.186 305.251C472.784 305.251 473.029 305.35 472.73 305.47ZM469.26 305.902C468.965 306.021 468.378 306.028 467.955 305.918C467.532 305.808 467.773 305.71 468.49 305.702C469.208 305.693 469.554 305.783 469.26 305.902ZM457.538 306.376C454.145 306.449 448.471 306.449 444.929 306.376C441.388 306.303 444.164 306.243 451.099 306.243C458.034 306.243 460.932 306.303 457.538 306.376ZM553.981 310.255C553.468 311.135 553.344 310.853 553.764 309.761C553.913 309.373 554.127 309.146 554.238 309.258C554.351 309.37 554.234 309.818 553.981 310.255ZM551.754 314.74C551.497 315.218 551.19 315.609 551.071 315.609C550.951 315.609 551.063 315.218 551.319 314.74C551.575 314.262 551.882 313.871 552.001 313.871C552.121 313.871 552.01 314.262 551.754 314.74ZM543.927 326.619C543.927 326.702 543.487 327.142 542.949 327.597L541.971 328.425L542.799 327.447C543.577 326.529 543.927 326.272 543.927 326.619ZM305.027 333.232L295.045 339.502H289.7H284.355V342.109V344.716H289.911H295.467L305.02 350.63C310.275 353.883 314.818 356.64 315.117 356.758C315.521 356.917 315.66 356.184 315.66 353.906V350.839L308.27 346.416L300.879 341.993L308.161 337.565L315.443 333.138L315.571 330.021C315.641 328.306 315.543 326.917 315.353 326.933C315.163 326.948 310.516 329.783 305.027 333.232ZM538.71 332.334C536.928 334.126 535.373 335.593 535.253 335.593C535.134 335.593 536.494 334.126 538.275 332.334C540.056 330.542 541.612 329.076 541.731 329.076C541.851 329.076 540.491 330.542 538.71 332.334ZM534.362 336.177C534.362 336.259 533.921 336.699 533.383 337.154L532.405 337.982L533.233 337.005C534.012 336.086 534.362 335.829 534.362 336.177ZM531.753 338.363C531.753 338.453 531.411 338.796 530.992 339.124C530.303 339.664 530.287 339.648 530.828 338.959C531.396 338.236 531.753 338.006 531.753 338.363ZM522.622 344.483C522.622 344.594 522.182 344.898 521.644 345.159C520.704 345.614 520.699 345.606 521.51 344.957C522.397 344.247 522.622 344.151 522.622 344.483ZM516.535 347.757C516.177 347.988 515.687 348.178 515.448 348.178C515.209 348.178 515.307 347.988 515.666 347.757C516.024 347.525 516.513 347.336 516.753 347.336C516.992 347.336 516.894 347.525 516.535 347.757ZM502.504 352.798C502.36 352.942 501.984 352.958 501.671 352.832C501.324 352.693 501.427 352.591 501.934 352.57C502.392 352.551 502.648 352.654 502.504 352.798ZM499.026 353.667C498.881 353.811 498.506 353.826 498.193 353.701C497.846 353.562 497.949 353.459 498.455 353.439C498.913 353.42 499.17 353.522 499.026 353.667ZM492.504 354.97C492.359 355.114 491.984 355.13 491.671 355.004C491.324 354.866 491.427 354.763 491.933 354.742C492.392 354.723 492.648 354.826 492.504 354.97ZM489.687 355.43C489.388 355.55 488.899 355.55 488.6 355.43C488.301 355.309 488.545 355.211 489.143 355.211C489.741 355.211 489.986 355.309 489.687 355.43ZM486.651 355.861C486.357 355.98 485.77 355.988 485.347 355.877C484.924 355.767 485.165 355.67 485.882 355.661C486.6 355.652 486.946 355.742 486.651 355.861ZM482.513 356.31C482.094 356.42 481.41 356.42 480.991 356.31C480.572 356.201 480.915 356.112 481.752 356.112C482.589 356.112 482.931 356.201 482.513 356.31ZM475.556 356.761C474.659 356.855 473.192 356.855 472.295 356.761C471.398 356.668 472.132 356.591 473.925 356.591C475.719 356.591 476.453 356.668 475.556 356.761Z" fill="#EAA87A"/>
<path fill-rule="evenodd" clip-rule="evenodd" d="M0.434919 178.329V356.445H30.8692H61.3039L61.4148 277.488L61.5256 198.53L61.6335 277.705L61.7409 356.88H30.9814H0.221436L17.6093 374.257L34.9971 391.634H65.7605H96.5244V312.568V233.502H111.52H126.515L126.634 216.016C126.699 206.399 126.8 234.061 126.856 277.488L126.96 356.445H157.396H187.831V178.329V0.213304H157.396H126.96V72.763V145.313H111.742H96.5244V90.0294V34.7465L79.1339 17.3746L61.7435 0.00260597L61.6322 72.7664L61.5209 145.53L61.4135 72.8716L61.3061 0.213304H30.8705H0.434919V178.329ZM188.266 178.44V356.88H157.506H126.746L144.134 374.257L161.522 391.634H192.286H223.049V213.19V34.7465L205.658 17.3733L188.266 0V178.44ZM377.293 178.324L377.403 356.445L427.295 356.551L477.186 356.657L427.292 356.877L377.397 357.097L394.714 374.396L412.032 391.694L463.305 391.511C518.245 391.314 517.747 391.333 529.761 389.015C560.734 383.04 582.164 364.721 592.252 335.595C596.544 323.202 598.738 310.562 599.568 293.453C600.138 281.706 600.138 144.461 599.568 132.714C598.89 118.744 597.655 110.02 594.786 98.9369C592.349 89.5246 589.491 82.4251 584.686 73.849C574.786 56.1795 569.051 48.2812 558.31 37.5243C551.343 30.5456 545.363 25.6126 538.058 20.8161C532.181 16.9571 523.781 12.2896 522.451 12.1436C521.261 12.0133 517.749 10.2803 517.303 9.60393C517.121 9.32763 516.978 9.30634 516.97 9.55353C516.962 9.8068 516.824 9.78899 516.637 9.51052C516.01 8.57259 507.551 5.48597 501.318 3.92072C496.866 2.80294 495.342 2.51187 491.969 2.13739C490.774 2.00446 488.719 1.71382 487.404 1.49183C482.368 0.640783 478.823 0.574315 428.707 0.39142L377.184 0.202878L377.293 178.324ZM527.079 15.066C528.454 15.9944 529.579 16.8406 529.579 16.9462C529.579 17.1391 523.045 12.9638 522.627 12.5042C522.169 12.0002 524.666 13.4373 527.079 15.066ZM530.939 17.9163C531.48 18.6053 531.464 18.6205 530.775 18.0805C530.356 17.7525 530.014 17.4102 530.014 17.3203C530.014 16.9627 530.371 17.1925 530.939 17.9163ZM532.84 19.3282C533.273 19.8061 533.529 20.197 533.41 20.197C533.29 20.197 532.838 19.8061 532.405 19.3282C531.973 18.8503 531.716 18.4593 531.836 18.4593C531.955 18.4593 532.407 18.8503 532.84 19.3282ZM535.884 21.9348C536.818 22.8905 537.484 23.6725 537.365 23.6725C537.245 23.6725 536.383 22.8905 535.449 21.9348C534.515 20.979 533.848 20.197 533.968 20.197C534.088 20.197 534.95 20.979 535.884 21.9348ZM541.101 27.1479C542.035 28.1037 542.702 28.8856 542.582 28.8856C542.463 28.8856 541.6 28.1037 540.666 27.1479C539.732 26.1922 539.066 25.4102 539.185 25.4102C539.305 25.4102 540.167 26.1922 541.101 27.1479ZM543.71 30.1889C544.143 30.6668 544.399 31.0578 544.28 31.0578C544.16 31.0578 543.708 30.6668 543.275 30.1889C542.843 29.711 542.586 29.3201 542.706 29.3201C542.825 29.3201 543.277 29.711 543.71 30.1889ZM545.287 32.2525C545.828 32.9415 545.813 32.9567 545.123 32.4167C544.704 32.0887 544.362 31.7463 544.362 31.6564C544.362 31.2989 544.719 31.5287 545.287 32.2525ZM546.592 33.9902C547.132 34.6792 547.117 34.6944 546.427 34.1544C546.009 33.8264 545.667 33.4841 545.667 33.3941C545.667 33.0366 546.024 33.2664 546.592 33.9902ZM284.355 37.1398V39.7464H291.095H297.834V47.5661V55.3858H291.095H284.355V57.9924V60.599H300.008H315.661V57.9924V55.3858H309.139H302.617V47.5661V39.7464H309.139H315.661V37.1398V34.5332H300.008H284.355V37.1398ZM549.58 38.4431C549.836 38.9209 549.947 39.3119 549.827 39.3119C549.708 39.3119 549.401 38.9209 549.145 38.4431C548.889 37.9652 548.777 37.5742 548.897 37.5742C549.017 37.5742 549.324 37.9652 549.58 38.4431ZM551.319 41.4841C551.575 41.9619 551.686 42.3529 551.567 42.3529C551.447 42.3529 551.14 41.9619 550.884 41.4841C550.628 41.0062 550.517 40.6152 550.636 40.6152C550.756 40.6152 551.063 41.0062 551.319 41.4841ZM554.784 48.6522C554.784 48.8911 554.594 48.7933 554.362 48.4349C554.131 48.0765 553.941 47.5878 553.941 47.3489C553.941 47.1099 554.131 47.2077 554.362 47.5661C554.594 47.9245 554.784 48.4132 554.784 48.6522ZM556.088 51.6932C556.088 51.9321 555.899 51.8343 555.667 51.4759C555.435 51.1175 555.245 50.6288 555.245 50.3899C555.245 50.1509 555.435 50.2487 555.667 50.6071C555.899 50.9655 556.088 51.4542 556.088 51.6932ZM453.164 50.9329L438.707 51.0532V178.546V306.039L452.186 306.163L465.665 306.287L452.077 306.278L438.49 306.269L438.379 178.981C438.317 108.973 438.36 51.449 438.474 51.1501C438.634 50.7279 441.898 50.6297 453.151 50.7096L467.621 50.8121L453.164 50.9329ZM470.773 51.3408C470.355 51.4503 469.67 51.4503 469.251 51.3408C468.833 51.2318 469.175 51.1423 470.012 51.1423C470.849 51.1423 471.192 51.2318 470.773 51.3408ZM474.042 51.7609C473.748 51.88 473.161 51.8873 472.738 51.777C472.315 51.6667 472.556 51.5694 473.273 51.5607C473.991 51.552 474.337 51.6419 474.042 51.7609ZM476.208 52.198C475.909 52.3187 475.42 52.3187 475.121 52.198C474.822 52.0776 475.067 51.979 475.665 51.979C476.263 51.979 476.507 52.0776 476.208 52.198ZM478.156 52.6072C478.011 52.7514 477.636 52.7671 477.323 52.6415C476.976 52.5029 477.079 52.4 477.585 52.3791C478.043 52.3604 478.3 52.463 478.156 52.6072ZM556.958 53.8653C556.958 54.1042 556.768 54.0065 556.536 53.6481C556.305 53.2897 556.115 52.801 556.115 52.562C556.115 52.3231 556.305 52.4208 556.536 52.7792C556.768 53.1376 556.958 53.6264 556.958 53.8653ZM483.056 54.0825C483.415 54.3141 483.513 54.5035 483.274 54.5035C483.034 54.5035 482.545 54.3141 482.187 54.0825C481.828 53.851 481.73 53.6616 481.969 53.6616C482.208 53.6616 482.697 53.851 483.056 54.0825ZM486.117 55.3945C487.064 55.8776 487.839 56.3702 487.839 56.4897C487.839 56.6843 484.407 55.083 483.962 54.6807C483.481 54.2454 484.572 54.6073 486.117 55.3945ZM490.259 58.0397C490.422 58.3021 490.042 58.1809 489.414 57.7704C488.787 57.3594 488.274 56.9415 488.274 56.8411C488.274 56.5266 489.949 57.5384 490.259 58.0397ZM493.274 60.599C494.452 61.7936 495.317 62.7711 495.198 62.7711C495.078 62.7711 494.017 61.7936 492.839 60.599C491.661 59.4043 490.795 58.4268 490.915 58.4268C491.035 58.4268 492.096 59.4043 493.274 60.599ZM559.442 61.9839C559.303 62.3302 559.2 62.2272 559.179 61.7211C559.161 61.2632 559.263 61.0069 559.408 61.1511C559.552 61.2953 559.568 61.6703 559.442 61.9839ZM560.312 65.0249C560.173 65.3712 560.07 65.2682 560.049 64.7621C560.03 64.3042 560.133 64.0479 560.277 64.1921C560.422 64.3364 560.437 64.7113 560.312 65.0249ZM560.746 66.7626C560.608 67.1089 560.505 67.0059 560.484 66.4998C560.465 66.0419 560.568 65.7856 560.712 65.9298C560.856 66.0741 560.872 66.449 560.746 66.7626ZM498.709 68.5742C498.709 69.1259 498.508 68.8796 497.874 67.5498C497.386 66.5259 497.395 66.512 498.033 67.307C498.404 67.7709 498.709 68.3409 498.709 68.5742ZM561.172 68.9617C561.052 69.2606 560.953 69.016 560.953 68.4187C560.953 67.8213 561.052 67.5772 561.172 67.8756C561.293 68.1745 561.293 68.6633 561.172 68.9617ZM561.616 70.6725C561.477 71.0187 561.374 70.9158 561.353 70.4097C561.335 69.9518 561.437 69.6955 561.582 69.8397C561.726 69.9839 561.742 70.3588 561.616 70.6725ZM562.051 72.8446C561.912 73.1909 561.809 73.0879 561.788 72.5818C561.77 72.1239 561.872 71.8676 562.017 72.0118C562.161 72.1561 562.177 72.531 562.051 72.8446ZM562.477 75.4782C562.356 75.777 562.257 75.5325 562.257 74.9351C562.257 74.3378 562.356 74.0936 562.477 74.3921C562.597 74.691 562.597 75.1797 562.477 75.4782ZM501.18 76.3201C501.041 76.6663 500.938 76.5634 500.917 76.0572C500.898 75.5994 501.001 75.343 501.145 75.4873C501.29 75.6315 501.305 76.0064 501.18 76.3201ZM562.925 77.8593C562.814 78.282 562.717 78.0413 562.708 77.3245C562.7 76.6077 562.79 76.2619 562.909 76.556C563.028 76.8501 563.035 77.4366 562.925 77.8593ZM501.614 78.0578C501.476 78.404 501.373 78.3011 501.352 77.795C501.333 77.3371 501.436 77.0808 501.58 77.225C501.725 77.3692 501.74 77.7441 501.614 78.0578ZM502.049 80.2299C501.911 80.5762 501.808 80.4732 501.787 79.9671C501.768 79.5092 501.871 79.2529 502.015 79.3971C502.159 79.5414 502.175 79.9163 502.049 80.2299ZM563.36 80.9003C563.249 81.323 563.152 81.0823 563.143 80.3655C563.134 79.6487 563.224 79.3029 563.344 79.597C563.463 79.8911 563.47 80.4776 563.36 80.9003ZM284.355 84.2488V87.0275L288.269 88.4259L292.182 89.8247L292.18 96.1731L292.179 102.521L288.376 103.862L284.573 105.203L284.442 107.933C284.314 110.594 284.337 110.657 285.311 110.406C285.862 110.264 292.866 107.729 300.878 104.772L315.443 99.3952V96.2152V93.0352L302.834 88.3412C295.899 85.7594 288.904 83.1571 287.29 82.5585L284.355 81.4698V84.2488ZM502.475 82.8635C502.355 83.1623 502.256 82.9178 502.256 82.3204C502.256 81.7231 502.355 81.4789 502.475 81.7774C502.596 82.0763 502.596 82.565 502.475 82.8635ZM563.793 84.384C563.683 84.8023 563.594 84.46 563.594 83.6237C563.594 82.7874 563.683 82.4451 563.793 82.8635C563.902 83.2818 563.902 83.9656 563.793 84.384ZM503.1 87.8594C503.196 89.9503 503.274 131.346 503.274 179.85C503.274 262.024 503.222 268.369 502.506 272.871C501.354 280.12 500.202 284.073 497.791 289.039C496.074 292.579 495.03 294.104 492.867 296.233C488.913 300.126 483.005 303.057 476.208 304.5L473.491 305.077V195.183V85.2902L488.057 85.4344C501.694 85.5695 502.622 85.53 502.622 84.8184C502.622 84.4 502.69 84.0581 502.774 84.0581C502.857 84.0581 503.004 85.7689 503.1 87.8594ZM564.235 88.511C564.131 89.0489 564.046 88.6088 564.046 87.5336C564.046 86.4584 564.131 86.0183 564.235 86.5561C564.338 87.0939 564.338 87.9732 564.235 88.511ZM564.678 94.1508C564.581 94.9315 564.5 94.3975 564.497 92.9639C564.495 91.5303 564.574 90.8913 564.674 91.5442C564.773 92.1972 564.774 93.3701 564.678 94.1508ZM308.24 95.5418C309.061 95.8338 309.528 96.1987 309.278 96.3533C308.647 96.7426 297.819 100.566 297.347 100.566C297.137 100.566 296.964 98.5255 296.964 96.031V91.4956L301.856 93.2533C304.546 94.2199 307.419 95.2499 308.24 95.5418ZM565.124 219.023C565.061 241.442 565.01 223.228 565.01 178.546C565.01 133.865 565.061 115.523 565.124 137.784C565.186 160.046 565.186 196.603 565.124 219.023ZM284.355 134.669V137.493H300.008H315.661V134.669V131.845H300.008H284.355V134.669ZM284.355 163.993V166.6H290.008H295.66V171.552V176.504L290.008 179.616L284.355 182.728V185.959C284.355 187.736 284.445 189.19 284.555 189.19C284.664 189.19 287.355 187.646 290.533 185.759C296.271 182.353 296.317 182.336 296.953 183.261C298.73 185.849 300.696 187.343 302.969 187.829C308.926 189.104 313.994 186.048 315.194 180.458C315.451 179.264 315.661 174.484 315.661 169.837V161.387H300.008H284.355V163.993ZM310.853 172.139C310.826 178.251 310.366 180.212 308.66 181.475C307.017 182.691 303.726 182.616 302.357 181.33C300.851 179.917 300.448 177.933 300.445 171.921L300.443 166.6H305.66H310.878L310.853 172.139ZM284.425 247.078C284.566 255.473 284.624 255.984 285.696 258.267C288.094 263.374 291.966 265.667 298.742 265.993C308.012 266.439 313.506 262.721 315.172 254.876C315.441 253.61 315.661 249.358 315.661 245.427V238.281H299.969H284.278L284.425 247.078ZM310.796 248.815C310.656 252.752 310.439 254.051 309.682 255.494C307.815 259.053 305.119 260.429 300.005 260.434C294.875 260.439 291.978 258.967 290.218 255.464C289.267 253.572 289.138 252.753 289.138 248.622V243.928H300.055H310.972L310.796 248.815ZM564.678 265.316C564.581 266.097 564.5 265.563 564.497 264.129C564.495 262.695 564.574 262.056 564.674 262.709C564.773 263.362 564.774 264.535 564.678 265.316ZM564.235 270.097C564.131 270.638 564.042 270.298 564.037 269.342C564.033 268.386 564.118 267.944 564.227 268.359C564.335 268.775 564.339 269.557 564.235 270.097ZM563.793 274.23C563.683 274.647 563.594 274.306 563.594 273.469C563.594 272.633 563.683 272.291 563.793 272.709C563.902 273.127 563.902 273.812 563.793 274.23ZM563.36 277.262C563.249 277.685 563.152 277.444 563.143 276.727C563.134 276.011 563.224 275.665 563.344 275.959C563.463 276.253 563.47 276.84 563.36 277.262ZM562.911 280.094C562.791 280.393 562.692 280.149 562.692 279.551C562.692 278.954 562.791 278.71 562.911 279.008C563.032 279.307 563.032 279.796 562.911 280.094ZM562.477 282.701C562.356 283 562.257 282.755 562.257 282.158C562.257 281.561 562.356 281.316 562.477 281.615C562.597 281.914 562.597 282.402 562.477 282.701ZM562.042 284.873C561.921 285.172 561.823 284.927 561.823 284.33C561.823 283.733 561.921 283.489 562.042 283.787C562.163 284.086 562.163 284.575 562.042 284.873ZM284.357 287.433L284.358 290.195L288.161 291.538L291.964 292.88V299.308V305.736L288.16 307.053L284.355 308.37V311.167C284.355 313.223 284.499 313.911 284.899 313.763C285.198 313.651 292.242 311.061 300.551 308.006L315.661 302.45V299.34V296.23L300.551 290.644C292.242 287.572 285.198 284.972 284.899 284.865C284.501 284.723 284.356 285.41 284.357 287.433ZM561.607 287.045C561.486 287.344 561.388 287.099 561.388 286.502C561.388 285.905 561.486 285.661 561.607 285.959C561.728 286.258 561.728 286.747 561.607 287.045ZM561.181 288.756C561.043 289.102 560.94 288.999 560.919 288.493C560.9 288.035 561.003 287.779 561.147 287.923C561.291 288.067 561.307 288.442 561.181 288.756ZM560.746 290.494C560.608 290.84 560.505 290.737 560.484 290.231C560.465 289.773 560.568 289.517 560.712 289.661C560.856 289.805 560.872 290.18 560.746 290.494ZM559.877 293.969C559.738 294.315 559.635 294.212 559.614 293.706C559.596 293.248 559.698 292.992 559.843 293.136C559.987 293.281 560.003 293.655 559.877 293.969ZM303.52 296.978C306.969 298.2 309.836 299.239 309.891 299.286C309.946 299.334 307.304 300.316 304.021 301.47C300.738 302.623 297.807 303.659 297.508 303.77C297.094 303.924 296.964 302.869 296.964 299.364C296.964 296.83 297.029 294.756 297.107 294.756C297.185 294.756 300.071 295.756 303.52 296.978ZM559.007 297.01C558.869 297.356 558.766 297.253 558.745 296.747C558.726 296.289 558.829 296.033 558.973 296.177C559.117 296.322 559.133 296.696 559.007 297.01ZM557.024 302.869C556.512 303.75 556.388 303.468 556.808 302.376C556.956 301.987 557.17 301.761 557.282 301.873C557.394 301.985 557.278 302.433 557.024 302.869ZM472.73 305.47C472.431 305.591 471.942 305.591 471.643 305.47C471.344 305.35 471.588 305.251 472.186 305.251C472.784 305.251 473.029 305.35 472.73 305.47ZM469.909 305.915C469.493 306.024 468.711 306.028 468.17 305.924C467.629 305.82 467.969 305.731 468.925 305.727C469.882 305.722 470.325 305.807 469.909 305.915ZM555.285 307.214C554.772 308.094 554.649 307.812 555.069 306.72C555.217 306.332 555.431 306.105 555.543 306.217C555.655 306.329 555.539 306.777 555.285 307.214ZM552.863 312.524C552.008 314.22 551.214 315.609 551.1 315.609C550.985 315.609 551.614 314.15 552.497 312.366C553.381 310.583 554.174 309.194 554.261 309.281C554.347 309.367 553.718 310.826 552.863 312.524ZM550.014 317.781C549.758 318.259 549.451 318.65 549.332 318.65C549.212 318.65 549.324 318.259 549.58 317.781C549.836 317.303 550.143 316.912 550.262 316.912C550.382 316.912 550.271 317.303 550.014 317.781ZM546.536 323.158C546.536 323.248 546.194 323.591 545.775 323.919C545.086 324.459 545.07 324.443 545.611 323.754C546.179 323.031 546.536 322.801 546.536 323.158ZM545.232 324.896C545.232 324.986 544.89 325.328 544.471 325.656C543.781 326.196 543.766 326.181 544.306 325.492C544.875 324.768 545.232 324.539 545.232 324.896ZM543.927 326.619C543.927 326.702 543.487 327.142 542.949 327.597L541.971 328.425L542.799 327.447C543.577 326.529 543.927 326.272 543.927 326.619ZM305.027 333.232L295.045 339.502H289.7H284.355V342.109V344.716H289.911H295.467L305.02 350.63C310.275 353.883 314.818 356.64 315.117 356.758C315.521 356.917 315.661 356.184 315.661 353.906V350.839L308.27 346.416L300.879 341.993L308.161 337.565L315.443 333.138L315.571 330.021C315.641 328.306 315.543 326.917 315.354 326.933C315.164 326.948 310.517 329.783 305.027 333.232ZM538.71 332.334C536.928 334.126 535.373 335.593 535.253 335.593C535.134 335.593 536.494 334.126 538.275 332.334C540.056 330.542 541.612 329.076 541.732 329.076C541.851 329.076 540.491 330.542 538.71 332.334ZM534.362 336.177C534.362 336.259 533.921 336.699 533.384 337.154L532.405 337.982L533.234 337.005C534.012 336.086 534.362 335.829 534.362 336.177ZM531.753 338.363C531.753 338.453 531.411 338.796 530.992 339.124C530.303 339.664 530.287 339.648 530.828 338.959C531.396 338.236 531.753 338.006 531.753 338.363ZM528.361 340.914C528.111 341.213 527.256 341.83 526.46 342.285C524.755 343.261 525.039 342.853 527.059 341.427C528.703 340.265 529.004 340.147 528.361 340.914ZM524.796 343.18C524.796 343.291 524.356 343.595 523.818 343.855C522.879 344.31 522.873 344.303 523.684 343.653C524.571 342.944 524.796 342.848 524.796 343.18ZM522.622 344.494C522.622 344.757 515.811 348.199 515.349 348.169C515.089 348.152 522.05 344.396 522.514 344.303C522.574 344.291 522.622 344.377 522.622 344.494ZM510.013 350.363C509.655 350.595 509.166 350.784 508.926 350.784C508.687 350.784 508.785 350.595 509.144 350.363C509.503 350.132 509.992 349.942 510.231 349.942C510.47 349.942 510.372 350.132 510.013 350.363ZM505.548 351.929C505.403 352.073 505.028 352.089 504.715 351.963C504.368 351.825 504.471 351.722 504.977 351.701C505.435 351.682 505.692 351.785 505.548 351.929ZM502.504 352.798C502.36 352.942 501.985 352.958 501.671 352.832C501.324 352.693 501.427 352.591 501.934 352.57C502.392 352.551 502.648 352.654 502.504 352.798ZM500.765 353.232C500.621 353.376 500.245 353.392 499.932 353.267C499.585 353.128 499.688 353.025 500.194 353.004C500.653 352.985 500.909 353.088 500.765 353.232ZM499.026 353.667C498.881 353.811 498.506 353.826 498.193 353.701C497.846 353.562 497.949 353.459 498.455 353.439C498.914 353.42 499.17 353.522 499.026 353.667ZM496.852 354.101C496.707 354.245 496.332 354.261 496.019 354.135C495.672 353.997 495.775 353.894 496.281 353.873C496.74 353.854 496.996 353.957 496.852 354.101ZM494.678 354.535C494.533 354.68 494.158 354.695 493.845 354.57C493.498 354.431 493.601 354.328 494.107 354.307C494.566 354.289 494.822 354.391 494.678 354.535ZM492.296 354.995C491.997 355.116 491.508 355.116 491.209 354.995C490.91 354.875 491.154 354.776 491.752 354.776C492.35 354.776 492.595 354.875 492.296 354.995ZM489.695 355.427C489.401 355.546 488.814 355.553 488.391 355.443C487.968 355.333 488.208 355.235 488.926 355.227C489.643 355.218 489.989 355.308 489.695 355.427ZM486.431 355.875C486.015 355.983 485.233 355.987 484.692 355.884C484.151 355.78 484.491 355.691 485.448 355.686C486.404 355.681 486.847 355.766 486.431 355.875ZM482.301 356.317C481.767 356.42 480.788 356.422 480.127 356.323C479.467 356.223 479.904 356.139 481.1 356.135C482.295 356.132 482.836 356.214 482.301 356.317Z" fill="#EAA87A"/>
<path fill-rule="evenodd" clip-rule="evenodd" d="M0.434919 178.329V356.445H30.8692H61.3039L61.4148 277.488L61.5256 198.53L61.6335 277.705L61.7409 356.88H30.9814H0.221436L17.6093 374.257L34.9971 391.634H65.7605H96.5244V312.568V233.502H111.52H126.515L126.634 216.016C126.699 206.399 126.8 234.061 126.856 277.488L126.96 356.445H157.396H187.831V178.329V0.213304H157.396H126.96V72.763V145.313H111.742H96.5244V90.0294V34.7465L79.1339 17.3746L61.7435 0.00260597L61.6322 72.7664L61.5209 145.53L61.4135 72.8716L61.3061 0.213304H30.8705H0.434919V178.329ZM188.266 178.44V356.88H157.506H126.746L144.134 374.257L161.522 391.634H192.286H223.049V213.19V34.7465L205.658 17.3733L188.266 0V178.44ZM377.293 178.324L377.403 356.445L427.295 356.551L477.186 356.657L427.292 356.877L377.397 357.097L394.714 374.396L412.032 391.694L463.305 391.511C518.245 391.314 517.747 391.333 529.761 389.015C560.734 383.04 582.164 364.721 592.252 335.595C596.544 323.202 598.738 310.562 599.568 293.453C600.138 281.706 600.138 144.461 599.568 132.714C598.89 118.744 597.655 110.02 594.786 98.9369C592.349 89.5246 589.491 82.4251 584.686 73.849C574.786 56.1795 569.051 48.2812 558.31 37.5243C548.748 27.9473 539.907 21.3088 528.057 14.8071C522.474 11.7435 520.34 10.9328 524.605 13.4951C530.58 17.0852 538.374 23.7859 542.76 29.1028C543.746 30.2975 542.383 29.0246 539.731 26.2743C534.408 20.7522 528.483 16.1247 522.188 12.5715C519.916 11.2895 517.833 10.0488 517.56 9.81462C517.287 9.58003 516.944 9.50705 516.799 9.65215C516.654 9.79681 516.535 9.69342 516.535 9.42233C516.535 9.15125 516.242 9.04177 515.883 9.17905C515.524 9.31677 515.231 9.20121 515.231 8.92274C515.231 8.64427 515.035 8.53697 514.796 8.68467C514.557 8.83238 514.361 8.73463 514.361 8.46746C514.361 8.20028 514.166 8.10254 513.927 8.25024C513.687 8.39795 513.492 8.29065 513.492 8.01218C513.492 7.73371 513.211 7.61337 512.868 7.745C512.524 7.87664 512.182 7.81755 512.107 7.61381C512.032 7.41049 511.579 7.17677 511.1 7.09553C510.622 7.01386 510.133 6.8314 510.013 6.69021C509.613 6.21755 505.562 5.00506 505.176 5.24269C504.967 5.37215 504.796 5.28787 504.796 5.05589C504.796 4.70443 502.261 4.00022 500.665 3.90812C500.426 3.89422 499.986 3.73001 499.687 3.5432C499.388 3.35597 498.961 3.31556 498.739 3.45284C498.516 3.59056 498.206 3.49629 498.05 3.24388C497.894 2.99104 497.407 2.89808 496.97 3.03709C496.532 3.17611 496.053 3.09487 495.905 2.85637C495.758 2.6183 495.36 2.53012 495.02 2.66001C494.68 2.79034 494.163 2.7495 493.872 2.56878C493.58 2.38849 492.836 2.20907 492.22 2.16954C490.038 2.03052 485.442 1.3993 485.076 1.1886C484.176 0.670759 477.337 0.574315 428.707 0.394027L377.184 0.202878L377.293 178.324ZM545.287 32.2525C545.828 32.9415 545.813 32.9567 545.123 32.4167C544.704 32.0887 544.362 31.7463 544.362 31.6564C544.362 31.2989 544.719 31.5287 545.287 32.2525ZM547.758 35.7279C549.388 38.1385 550.827 40.6335 550.322 40.176C549.862 39.759 545.683 33.2299 545.877 33.2299C545.982 33.2299 546.829 34.3542 547.758 35.7279ZM284.355 37.1398V39.7464H291.095H297.834V47.5661V55.3858H291.095H284.355V57.9924V60.599H300.008H315.661V57.9924V55.3858H309.139H302.617V47.5661V39.7464H309.139H315.661V37.1398V34.5332H300.008H284.355V37.1398ZM552.863 44.5703C553.957 46.7459 554.782 48.5952 554.696 48.6804C554.612 48.7655 553.622 46.9857 552.498 44.7253C551.374 42.4646 550.55 40.6152 550.665 40.6152C550.781 40.6152 551.77 42.3951 552.863 44.5703ZM556.071 51.6932C556.071 51.9321 555.791 51.6389 555.449 51.0415C555.108 50.4442 554.828 49.76 554.828 49.521C554.828 49.2821 555.108 49.5753 555.449 50.1727C555.791 50.77 556.071 51.4542 556.071 51.6932ZM453.382 50.9329L438.707 51.0532V178.546V306.039L452.295 306.16L465.882 306.282L452.077 306.384L438.272 306.486V178.546V50.6071L453.164 50.7096L468.056 50.8121L453.382 50.9329ZM471.213 51.34C470.798 51.4486 470.015 51.4525 469.474 51.3487C468.933 51.2448 469.273 51.1558 470.23 51.151C471.186 51.1462 471.629 51.2314 471.213 51.34ZM474.042 51.7609C473.748 51.88 473.161 51.8873 472.738 51.777C472.315 51.6667 472.556 51.5694 473.273 51.5607C473.991 51.552 474.337 51.6419 474.042 51.7609ZM476.208 52.198C475.909 52.3187 475.42 52.3187 475.121 52.198C474.822 52.0776 475.067 51.979 475.665 51.979C476.263 51.979 476.507 52.0776 476.208 52.198ZM478.156 52.6072C478.011 52.7514 477.636 52.7671 477.323 52.6415C476.976 52.5029 477.079 52.4 477.585 52.3791C478.043 52.3604 478.3 52.463 478.156 52.6072ZM557.157 54.5169C557.359 55.2716 557.325 55.4041 557.045 54.9514C556.823 54.593 556.511 53.811 556.351 53.2137C556.149 52.4591 556.183 52.3266 556.463 52.7792C556.685 53.1376 556.997 53.9196 557.157 54.5169ZM479.895 53.0416C479.75 53.1859 479.375 53.2015 479.062 53.0759C478.715 52.9374 478.818 52.8344 479.324 52.8136C479.783 52.7949 480.039 52.8974 479.895 53.0416ZM486.752 55.742C490.659 57.7452 495.789 62.7946 497.787 66.6028C498.579 68.1133 499.155 69.4205 499.067 69.5082C498.98 69.596 498.237 68.3605 497.417 66.7626C495.126 62.2954 490.765 58.1662 485.665 55.6343C483.393 54.5065 482.024 53.7185 482.621 53.8827C483.219 54.0473 485.078 54.884 486.752 55.742ZM559.519 61.9022C559.519 62.3128 559.381 62.2328 559.145 61.685C558.939 61.2072 558.772 60.5229 558.772 60.1645C558.772 59.754 558.909 59.8339 559.145 60.3817C559.351 60.8596 559.519 61.5438 559.519 61.9022ZM561.091 67.953C561.211 68.8066 560.924 68.1363 560.454 66.4638C559.984 64.7912 559.615 63.2273 559.633 62.9883C559.686 62.2854 560.854 66.2609 561.091 67.953ZM561.607 71.1339C561.486 71.4328 561.388 71.1882 561.388 70.5908C561.388 69.9935 561.486 69.7493 561.607 70.0478C561.728 70.3467 561.728 70.8354 561.607 71.1339ZM500.648 73.8968C500.86 74.9712 500.81 74.9329 500.299 73.6318C499.971 72.7956 499.579 71.6226 499.427 71.0253C499.221 70.2085 499.307 70.2741 499.777 71.2903C500.12 72.0336 500.512 73.2065 500.648 73.8968ZM562.042 73.306C561.921 73.6049 561.823 73.3603 561.823 72.763C561.823 72.1656 561.921 71.9215 562.042 72.2199C562.163 72.5188 562.163 73.0076 562.042 73.306ZM562.477 75.4782C562.356 75.777 562.257 75.5325 562.257 74.9351C562.257 74.3378 562.356 74.0936 562.477 74.3921C562.597 74.691 562.597 75.1797 562.477 75.4782ZM501.18 76.3201C501.041 76.6663 500.938 76.5634 500.917 76.0572C500.898 75.5994 501.001 75.343 501.145 75.4873C501.29 75.6315 501.305 76.0064 501.18 76.3201ZM562.925 77.8593C562.814 78.282 562.717 78.0413 562.708 77.3245C562.7 76.6077 562.79 76.2619 562.909 76.556C563.028 76.8501 563.035 77.4366 562.925 77.8593ZM501.614 78.0578C501.476 78.404 501.373 78.3011 501.352 77.795C501.333 77.3371 501.436 77.0808 501.58 77.225C501.725 77.3692 501.74 77.7441 501.614 78.0578ZM502.04 80.2569C501.92 80.5558 501.821 80.3112 501.821 79.7138C501.821 79.1165 501.92 78.8724 502.04 79.1708C502.161 79.4697 502.161 79.9584 502.04 80.2569ZM563.36 80.9003C563.249 81.323 563.152 81.0823 563.143 80.3655C563.134 79.6487 563.224 79.3029 563.344 79.597C563.463 79.8911 563.47 80.4776 563.36 80.9003ZM502.488 82.638C502.378 83.0607 502.281 82.82 502.272 82.1032C502.263 81.3864 502.353 81.0406 502.472 81.3347C502.591 81.6288 502.599 82.2153 502.488 82.638ZM284.355 84.2488V87.0275L288.269 88.4259L292.182 89.8247L292.18 96.1731L292.179 102.521L288.376 103.862L284.573 105.203L284.442 107.933C284.314 110.594 284.337 110.657 285.311 110.406C285.862 110.264 292.866 107.729 300.878 104.772L315.443 99.3952V96.2152V93.0352L302.834 88.3412C295.899 85.7594 288.904 83.1571 287.29 82.5585L284.355 81.4698V84.2488ZM563.793 84.384C563.683 84.8023 563.594 84.46 563.594 83.6237C563.594 82.7874 563.683 82.4451 563.793 82.8635C563.902 83.2818 563.902 83.9656 563.793 84.384ZM503.1 87.8594C503.196 89.9503 503.274 131.346 503.274 179.85C503.274 262.024 503.222 268.369 502.506 272.871C501.354 280.12 500.202 284.073 497.791 289.039C496.074 292.579 495.03 294.104 492.867 296.233C488.97 300.07 481.881 303.57 476.063 304.53C475.007 304.704 473.909 305.035 473.623 305.265C473.338 305.495 472.653 305.597 472.102 305.492C471.213 305.322 471.235 305.294 472.295 305.242L473.491 305.183V195.236V85.2902L488.057 85.4344C501.694 85.5695 502.622 85.53 502.622 84.8184C502.622 84.4 502.69 84.0581 502.774 84.0581C502.857 84.0581 503.004 85.7689 503.1 87.8594ZM564.235 88.511C564.131 89.0489 564.046 88.6088 564.046 87.5336C564.046 86.4584 564.131 86.0183 564.235 86.5561C564.338 87.0939 564.338 87.9732 564.235 88.511ZM564.678 94.1508C564.581 94.9315 564.5 94.3975 564.497 92.9639C564.495 91.5303 564.574 90.8913 564.674 91.5442C564.773 92.1972 564.774 93.3701 564.678 94.1508ZM308.24 95.5418C309.061 95.8338 309.528 96.1987 309.278 96.3533C308.647 96.7426 297.819 100.566 297.347 100.566C297.137 100.566 296.964 98.5255 296.964 96.031V91.4956L301.856 93.2533C304.546 94.2199 307.419 95.2499 308.24 95.5418ZM565.124 219.023C565.061 241.442 565.01 223.228 565.01 178.546C565.01 133.865 565.061 115.523 565.124 137.784C565.186 160.046 565.186 196.603 565.124 219.023ZM284.355 134.669V137.493H300.008H315.661V134.669V131.845H300.008H284.355V134.669ZM284.355 163.993V166.6H290.008H295.66V171.552V176.504L290.008 179.616L284.355 182.728V185.959C284.355 187.736 284.445 189.19 284.555 189.19C284.664 189.19 287.355 187.646 290.533 185.759C296.271 182.353 296.317 182.336 296.953 183.261C298.73 185.849 300.696 187.343 302.969 187.829C308.926 189.104 313.994 186.048 315.194 180.458C315.451 179.264 315.661 174.484 315.661 169.837V161.387H300.008H284.355V163.993ZM310.853 172.139C310.826 178.251 310.366 180.212 308.66 181.475C307.017 182.691 303.726 182.616 302.357 181.33C300.851 179.917 300.448 177.933 300.445 171.921L300.443 166.6H305.66H310.878L310.853 172.139ZM284.425 247.078C284.566 255.473 284.624 255.984 285.696 258.267C288.094 263.374 291.966 265.667 298.742 265.993C308.012 266.439 313.506 262.721 315.172 254.876C315.441 253.61 315.661 249.358 315.661 245.427V238.281H299.969H284.278L284.425 247.078ZM310.796 248.815C310.656 252.752 310.439 254.051 309.682 255.494C307.815 259.053 305.119 260.429 300.005 260.434C294.875 260.439 291.978 258.967 290.218 255.464C289.267 253.572 289.138 252.753 289.138 248.622V243.928H300.055H310.972L310.796 248.815ZM564.677 265.324C564.581 266.1 564.502 265.465 564.502 263.912C564.502 262.359 564.581 261.723 564.677 262.5C564.774 263.277 564.774 264.547 564.677 265.324ZM564.235 270.102C564.131 270.64 564.046 270.2 564.046 269.125C564.046 268.05 564.131 267.61 564.235 268.148C564.338 268.685 564.338 269.565 564.235 270.102ZM563.8 274.007C563.697 274.548 563.607 274.208 563.603 273.252C563.598 272.296 563.683 271.854 563.792 272.269C563.9 272.685 563.904 273.467 563.8 274.007ZM563.358 277.271C563.249 277.688 563.159 277.347 563.159 276.51C563.159 275.674 563.249 275.332 563.358 275.75C563.467 276.168 563.467 276.853 563.358 277.271ZM562.925 279.869C562.814 280.292 562.717 280.051 562.708 279.334C562.7 278.617 562.79 278.271 562.909 278.566C563.028 278.86 563.035 279.446 562.925 279.869ZM562.49 282.475C562.38 282.898 562.282 282.657 562.273 281.941C562.265 281.224 562.355 280.878 562.474 281.172C562.593 281.466 562.6 282.053 562.49 282.475ZM562.042 284.873C561.921 285.172 561.823 284.927 561.823 284.33C561.823 283.733 561.921 283.489 562.042 283.787C562.163 284.086 562.163 284.575 562.042 284.873ZM284.357 287.433L284.358 290.195L288.161 291.538L291.964 292.88V299.308V305.736L288.16 307.053L284.355 308.37V311.167C284.355 313.223 284.499 313.911 284.899 313.763C285.198 313.651 292.242 311.061 300.551 308.006L315.661 302.45V299.34V296.23L300.551 290.644C292.242 287.572 285.198 284.972 284.899 284.865C284.501 284.723 284.356 285.41 284.357 287.433ZM561.607 287.045C561.486 287.344 561.388 287.099 561.388 286.502C561.388 285.905 561.486 285.661 561.607 285.959C561.728 286.258 561.728 286.747 561.607 287.045ZM561.181 288.756C561.043 289.102 560.94 288.999 560.919 288.493C560.9 288.035 561.003 287.779 561.147 287.923C561.291 288.067 561.307 288.442 561.181 288.756ZM560.746 290.494C560.608 290.84 560.505 290.737 560.484 290.231C560.465 289.773 560.568 289.517 560.712 289.661C560.856 289.805 560.872 290.18 560.746 290.494ZM560.312 292.231C560.173 292.578 560.07 292.475 560.049 291.969C560.03 291.511 560.133 291.254 560.277 291.399C560.422 291.543 560.437 291.918 560.312 292.231ZM559.877 293.969C559.738 294.315 559.635 294.212 559.614 293.706C559.596 293.248 559.698 292.992 559.843 293.136C559.987 293.281 560.003 293.655 559.877 293.969ZM303.52 296.978C306.969 298.2 309.836 299.239 309.891 299.286C309.946 299.334 307.304 300.316 304.021 301.47C300.738 302.623 297.807 303.659 297.508 303.77C297.094 303.924 296.964 302.869 296.964 299.364C296.964 296.83 297.029 294.756 297.107 294.756C297.185 294.756 300.071 295.756 303.52 296.978ZM558.058 299.969C557.411 301.911 556.809 303.427 556.72 303.339C556.632 303.251 557.082 301.583 557.722 299.634C558.362 297.684 558.964 296.168 559.06 296.264C559.156 296.36 558.706 298.028 558.058 299.969ZM556.155 305.041C555.642 305.922 555.519 305.64 555.938 304.548C556.087 304.16 556.301 303.933 556.412 304.045C556.525 304.157 556.409 304.605 556.155 305.041ZM469.909 305.915C469.493 306.024 468.711 306.028 468.17 305.924C467.629 305.82 467.969 305.731 468.925 305.727C469.882 305.722 470.325 305.807 469.909 305.915ZM555.066 307.642C554.698 308.32 554.389 308.738 554.38 308.57C554.35 308.053 555.362 306.036 555.554 306.228C555.653 306.328 555.434 306.964 555.066 307.642ZM552.863 312.524C552.008 314.22 551.214 315.609 551.1 315.609C550.985 315.609 551.614 314.15 552.497 312.366C553.381 310.583 554.174 309.194 554.261 309.281C554.347 309.367 553.718 310.826 552.863 312.524ZM550.276 317.238C549.93 317.895 549.317 318.824 548.915 319.302C548.213 320.135 548.209 320.126 548.814 319.084C549.161 318.487 549.677 317.558 549.962 317.021C550.247 316.483 550.576 316.043 550.693 316.043C550.811 316.043 550.623 316.581 550.276 317.238ZM546.536 322.994C546.025 323.711 545.51 324.297 545.39 324.297C545.27 324.297 545.59 323.711 546.101 322.994C546.612 322.277 547.128 321.691 547.247 321.691C547.367 321.691 547.047 322.277 546.536 322.994ZM543.855 326.561C541.402 329.657 537.897 333.289 535.088 335.645C533.265 337.174 533.599 336.772 536.129 334.392C538.178 332.466 540.988 329.505 542.374 327.811C543.761 326.117 544.988 324.732 545.1 324.732C545.213 324.732 544.653 325.555 543.855 326.561ZM305.027 333.232L295.045 339.502H289.7H284.355V342.109V344.716H289.911H295.467L305.02 350.63C310.275 353.883 314.818 356.64 315.117 356.758C315.521 356.917 315.661 356.184 315.661 353.906V350.839L308.27 346.416L300.879 341.993L308.161 337.565L315.443 333.138L315.571 330.021C315.641 328.306 315.543 326.917 315.354 326.933C315.164 326.948 310.517 329.783 305.027 333.232ZM531.983 338.179C531.842 338.407 531.097 339.012 530.327 339.524C528.933 340.45 528.933 340.448 530.449 339.121C532.054 337.714 532.402 337.501 531.983 338.179ZM528.361 340.914C528.111 341.213 527.256 341.83 526.46 342.285C524.755 343.261 525.039 342.853 527.059 341.427C528.703 340.265 529.004 340.147 528.361 340.914ZM524.175 343.64C523.095 344.456 515.86 348.194 515.379 348.183C515.026 348.176 524.357 343.065 524.796 343.025C524.916 343.014 524.636 343.291 524.175 343.64ZM514.361 348.626C514.003 348.857 513.514 349.046 513.274 349.046C513.035 349.046 513.133 348.857 513.492 348.626C513.85 348.394 514.34 348.205 514.579 348.205C514.818 348.205 514.72 348.394 514.361 348.626ZM512.187 349.494C511.829 349.726 511.34 349.915 511.1 349.915C510.861 349.915 510.959 349.726 511.318 349.494C511.677 349.263 512.166 349.073 512.405 349.073C512.644 349.073 512.546 349.263 512.187 349.494ZM510.448 350.106C510.448 350.344 505.185 352.11 504.603 352.067C504.35 352.048 505.415 351.575 506.97 351.015C509.927 349.95 510.448 349.813 510.448 350.106ZM503.274 352.535C502.796 352.741 502.111 352.909 501.752 352.909C501.341 352.909 501.421 352.771 501.97 352.535C502.448 352.33 503.133 352.162 503.492 352.162C503.902 352.162 503.822 352.3 503.274 352.535ZM500.765 353.232C500.621 353.376 500.245 353.392 499.932 353.267C499.585 353.128 499.688 353.025 500.194 353.004C500.653 352.985 500.909 353.088 500.765 353.232ZM498.817 353.692C498.519 353.813 498.03 353.813 497.73 353.692C497.432 353.571 497.676 353.473 498.274 353.473C498.872 353.473 499.117 353.571 498.817 353.692ZM496.643 354.126C496.345 354.247 495.856 354.247 495.557 354.126C495.258 354.006 495.502 353.907 496.1 353.907C496.698 353.907 496.943 354.006 496.643 354.126ZM494.47 354.561C494.171 354.681 493.682 354.681 493.383 354.561C493.084 354.44 493.328 354.342 493.926 354.342C494.524 354.342 494.769 354.44 494.47 354.561ZM492.304 354.993C492.009 355.112 491.423 355.119 490.999 355.009C490.576 354.898 490.817 354.801 491.535 354.792C492.252 354.784 492.598 354.873 492.304 354.993ZM489.469 355.441C489.051 355.551 488.366 355.551 487.948 355.441C487.529 355.332 487.872 355.243 488.709 355.243C489.545 355.243 489.888 355.332 489.469 355.441ZM486.431 355.875C486.015 355.983 485.233 355.987 484.692 355.884C484.151 355.78 484.491 355.691 485.448 355.686C486.404 355.681 486.847 355.766 486.431 355.875ZM482.078 356.322C481.42 356.421 480.344 356.421 479.687 356.322C479.029 356.222 479.567 356.141 480.882 356.141C482.197 356.141 482.736 356.222 482.078 356.322Z" fill="#EAA87A"/>
<path fill-rule="evenodd" clip-rule="evenodd" d="M61.7409 72.6565V145.313H79.1326H96.5244V90.0294V34.7465L79.1326 17.3733L61.7409 0V72.6565ZM188.266 178.44V356.88H157.506H126.746L144.134 374.257L161.522 391.634H192.286H223.049V213.19V34.7465L205.658 17.3733L188.266 0V178.44ZM524.605 13.4908C532.212 18.0501 541.146 26.412 546.641 34.1162C554.895 45.6889 560.863 62.2924 563.5 81.0171C565.205 93.129 565.299 99.0286 565.134 183.542C564.988 258.261 564.912 265.501 564.207 271.08C560.644 299.273 552.738 318.109 538.495 332.334C525.382 345.43 510.184 352.362 486.917 355.859C482.507 356.522 476.28 356.62 429.6 356.762L377.23 356.922L394.599 374.299L411.967 391.675L463.273 391.501C518.262 391.315 517.738 391.334 529.761 389.015C560.734 383.04 582.164 364.721 592.252 335.595C596.544 323.202 598.738 310.562 599.568 293.453C600.138 281.706 600.138 144.461 599.568 132.714C598.89 118.744 597.655 110.02 594.786 98.9369C592.349 89.5246 589.491 82.4251 584.686 73.849C574.786 56.1795 569.051 48.2812 558.31 37.5243C548.748 27.9473 539.907 21.3088 528.057 14.8071C522.484 11.7491 520.325 10.9259 524.605 13.4908ZM438.707 178.587V306.133L454.686 305.91C463.474 305.787 471.301 305.551 472.078 305.385L473.491 305.084V195.187V85.2902L488.057 85.4344C501.324 85.5656 502.622 85.5152 502.622 84.8662C502.621 83.3535 501.204 76.7927 500.155 73.4468C497.423 64.7334 492.881 59.1675 485.665 55.6903C477.597 51.8026 472.313 51.0476 453.164 51.0441L438.707 51.0415V178.587ZM61.7409 277.814V356.88H30.9814H0.221436L17.6093 374.257L34.9971 391.634H65.7605H96.5244V312.568V233.502H111.525H126.525V216.125V198.747H94.133H61.7409V277.814Z" fill="white"/>
</svg>
