<?xml version="1.0" standalone="no"?>
<!DOCTYPE svg PUBLIC "-//W3C//DTD SVG 20010904//EN"
 "http://www.w3.org/TR/2001/REC-SVG-20010904/DTD/svg10.dtd">
<svg version="1.0" xmlns="http://www.w3.org/2000/svg"
 width="1200.000000pt" height="1200.000000pt" viewBox="0 0 1200.000000 1200.000000"
 preserveAspectRatio="xMidYMid meet">
<metadata>
Created by potrace 1.14, written by Peter Selinger 2001-2017
</metadata>
<g transform="translate(0.000000,1200.000000) scale(0.100000,-0.100000)"
fill="#000000" stroke="none">
<path d="M0 6351 l0 -3570 349 -348 348 -348 617 0 616 0 1 25 c1 14 2 725 3
1580 l1 1555 296 3 297 2 -2 -1230 -1 -1230 355 -354 355 -353 615 1 615 1 0
3570 0 3570 -346 348 -347 347 -621 0 -621 0 -1 -22 c0 -13 -1 -665 -1 -1450
0 -1059 -3 -1428 -12 -1429 -109 -6 -577 -2 -579 6 -2 6 -3 498 -2 1095 0 597
-3 1093 -8 1103 -5 10 -162 171 -349 358 l-340 339 -619 0 -619 0 0 -3569z"/>
<path d="M7536 6353 l0 -3568 352 -350 351 -350 858 2 c1043 4 1310 9 1372 27
9 3 36 8 61 11 25 4 71 12 102 20 31 7 59 10 62 7 3 -3 6 -1 6 4 0 5 10 10 23
12 71 5 435 156 445 183 2 5 8 9 14 9 38 0 291 212 364 306 16 21 38 49 50 63
68 85 214 346 214 384 0 7 4 17 9 23 10 10 59 158 67 199 3 16 9 35 13 44 5 9
11 30 14 46 6 30 10 51 23 110 4 17 8 41 10 55 1 14 3 26 4 28 1 1 3 10 4 20
1 9 6 41 10 71 12 79 16 115 24 236 9 138 9 3366 0 3455 -4 36 -9 91 -12 122
-2 32 -7 70 -10 85 -3 16 -8 48 -11 73 -8 58 -40 200 -71 313 -35 126 -60 193
-122 327 -49 104 -266 471 -284 478 -4 2 -8 8 -8 14 0 6 -10 23 -22 38 -13 15
-34 42 -48 61 -14 18 -35 43 -47 56 -13 13 -23 26 -23 29 0 21 -347 360 -398
388 -9 5 -22 14 -28 20 -6 6 -22 18 -34 26 -12 8 -28 20 -34 25 -57 50 -355
222 -416 240 -14 4 -32 14 -41 21 -9 8 -25 16 -35 18 -11 3 -44 15 -74 29 -30
13 -89 34 -130 47 -41 12 -82 25 -90 28 -20 7 -14 6 -115 27 -112 24 -180 35
-250 40 -27 2 -522 6 -1100 10 l-1050 6 1 -3568z m2302 1853 c111 -1 205 -5
208 -9 3 -3 8 -27 10 -54 7 -62 7 -3318 0 -3523 -6 -212 -33 -331 -111 -492
-61 -129 -192 -230 -355 -277 -25 -7 -57 -17 -71 -21 -14 -4 -31 -5 -36 -1 -7
4 -10 725 -10 2191 l0 2185 46 5 c25 3 62 4 81 2 19 -1 126 -4 238 -6z"/>
<path d="M5684 9178 l1 -53 127 0 c70 -1 130 -4 133 -7 9 -9 11 -286 2 -295
-4 -4 -65 -7 -135 -7 l-127 -1 -1 -52 c-1 -41 2 -53 15 -57 9 -2 151 -4 316
-3 l300 2 0 55 0 55 -100 1 c-55 1 -113 2 -130 3 l-30 1 1 152 1 153 129 0
129 0 1 53 1 52 -317 0 -317 0 1 -52z"/>
<path d="M5683 8236 c0 -60 -3 -58 117 -101 l45 -16 -1 -117 c-1 -64 -2 -120
-3 -124 -1 -5 -44 -25 -71 -32 -60 -18 -80 -30 -81 -49 -1 -12 -2 -37 -4 -54
-2 -36 3 -38 50 -24 42 13 306 109 330 120 11 6 47 19 80 30 33 12 83 29 110
40 l50 19 3 69 c2 51 -1 70 -10 70 -12 1 -202 71 -253 93 -39 17 -347 130
-354 130 -4 0 -8 -24 -8 -54z m335 -175 c9 -5 37 -16 62 -25 106 -36 107 -37
87 -47 -9 -6 -25 -12 -35 -14 -9 -3 -54 -18 -99 -34 -95 -35 -92 -37 -91 71
l1 68 29 -5 c16 -3 37 -9 46 -14z"/>
<path d="M5686 7280 c-2 -3 -3 -30 -2 -60 l1 -54 308 -1 c170 0 313 3 318 6 5
3 8 30 6 60 l-3 54 -312 0 c-173 1 -315 -2 -316 -5z"/>
<path d="M5686 6691 c-2 -3 -3 -28 -2 -56 l1 -50 113 0 c92 0 112 -3 113 -15
3 -51 -3 -176 -9 -181 -9 -9 -100 -60 -162 -91 -25 -12 -47 -24 -50 -26 -9 -7
-7 -132 2 -132 10 0 77 36 166 89 29 17 57 31 63 31 5 0 24 -16 41 -36 43 -49
83 -67 148 -67 71 0 131 30 166 83 32 48 41 119 40 320 l-1 135 -313 1 c-172
0 -315 -2 -316 -5z m524 -110 c3 -1 4 -25 4 -53 -5 -226 -17 -252 -114 -249
-67 2 -89 53 -90 212 0 47 2 88 4 90 4 3 180 4 196 0z"/>
<path d="M5686 5151 c-9 -14 5 -338 16 -371 28 -90 110 -162 200 -175 40 -7
156 -6 195 1 38 7 102 40 134 70 64 61 85 148 84 354 l0 125 -313 1 c-172 1
-314 -1 -316 -5z m527 -121 c3 -3 2 -49 -3 -103 -14 -160 -64 -210 -210 -211
-62 0 -83 4 -120 24 -66 37 -88 83 -92 198 -2 51 -3 94 -2 95 5 5 422 2 427
-3z"/>
<path d="M5692 4212 c-5 -9 -9 -35 -8 -57 l1 -40 70 -24 c39 -14 72 -28 75
-32 3 -4 5 -63 5 -130 l0 -124 -30 -8 c-16 -5 -41 -14 -55 -20 -14 -6 -31 -12
-39 -13 -8 -1 -18 -9 -22 -16 -9 -13 -5 -95 4 -104 4 -4 24 2 82 27 45 19 221
81 233 82 6 0 12 4 12 9 0 4 3 7 8 6 4 -2 45 11 92 29 47 17 110 40 140 51
l55 20 0 62 c0 46 -4 65 -15 71 -18 10 -98 40 -275 104 -173 63 -253 93 -292
110 -29 13 -33 13 -41 -3z m313 -212 c19 -7 131 -46 165 -57 12 -3 11 -7 -5
-16 -11 -6 -24 -12 -30 -14 -5 -1 -48 -16 -94 -32 -45 -17 -87 -29 -91 -26 -8
5 -11 144 -3 157 4 7 19 4 58 -12z"/>
<path d="M6155 3293 c-77 -48 -141 -91 -143 -95 -2 -4 -8 -8 -13 -8 -5 0 -28
-12 -51 -27 -39 -26 -49 -28 -152 -29 l-111 0 0 -55 0 -54 111 -1 112 -1 103
-64 c57 -35 116 -70 132 -78 15 -8 27 -18 27 -23 0 -4 4 -8 9 -8 6 0 36 -16
68 -35 66 -40 72 -36 69 45 l-1 45 -103 62 c-57 35 -108 63 -113 63 -5 0 -9 3
-9 8 0 4 -13 13 -30 20 -16 8 -30 17 -30 20 0 4 57 41 126 82 68 41 131 80
139 85 19 13 26 135 8 135 -5 0 -71 -39 -148 -87z"/>
</g>
</svg>
